<?xml version="1.0" encoding="us-ascii" standalone="no"?><svg xmlns="http://www.w3.org/2000/svg" xmlns:xlink="http://www.w3.org/1999/xlink" contentStyleType="text/css" height="255px" preserveAspectRatio="none" style="width:524px;height:255px;background:#FFFFFF;" version="1.1" viewBox="0 0 524 255" width="524px" zoomAndPan="magnify"><defs/><g><g id="Inactivo"><rect fill="#F1F1F1" height="50" rx="12.5" ry="12.5" style="stroke:#181818;stroke-width:0.5;" width="73" x="35.5" y="161"/><line style="stroke:#181818;stroke-width:0.5;" x1="35.5" x2="108.5" y1="190.0679" y2="190.0679"/><text fill="#000000" font-family="sans-serif" font-size="14" lengthAdjust="spacing" textLength="53" x="45.5" y="180.9659">Inactivo</text></g><g id="EnCurso"><rect fill="#F1F1F1" height="50" rx="12.5" ry="12.5" style="stroke:#181818;stroke-width:0.5;" width="76" x="280.5" y="140"/><line style="stroke:#181818;stroke-width:0.5;" x1="280.5" x2="356.5" y1="169.0679" y2="169.0679"/><text fill="#000000" font-family="sans-serif" font-size="14" lengthAdjust="spacing" textLength="56" x="290.5" y="159.9659">EnCurso</text></g><g id="Finalizado"><rect fill="#F1F1F1" height="50" rx="12.5" ry="12.5" style="stroke:#181818;stroke-width:0.5;" width="88" x="429.5" y="199"/><line style="stroke:#181818;stroke-width:0.5;" x1="429.5" x2="517.5" y1="228.0679" y2="228.0679"/><text fill="#000000" font-family="sans-serif" font-size="14" lengthAdjust="spacing" textLength="68" x="439.5" y="218.9659">Finalizado</text></g><ellipse cx="72" cy="97" fill="#222222" rx="10" ry="10" style="stroke:#222222;stroke-width:1.0;"/><!--link *start* to Inactivo--><g id="link_*start*_Inactivo"><path d="M72,107.37 C72,120.36 72,137.06 72,154.73 " fill="none" id="*start*-to-Inactivo" style="stroke:#181818;stroke-width:1.0;"/><polygon fill="#181818" points="72,160.73,76,151.73,72,155.73,68,151.73,72,160.73" style="stroke:#181818;stroke-width:1.0;"/><text fill="#000000" font-family="sans-serif" font-size="13" lengthAdjust="spacing" textLength="105" x="7" y="139.397">arrancarSistema()</text></g><!--link Inactivo to EnCurso--><g id="link_Inactivo_EnCurso"><path d="M108.6,173.08 C118.18,170.17 128.63,167.5 138.5,166 C187.04,158.62 237.8601,159.6226 274.2401,161.7326 " fill="none" id="Inactivo-to-EnCurso" style="stroke:#181818;stroke-width:1.0;"/><polygon fill="#181818" points="280.23,162.08,271.4767,157.5656,275.2384,161.7905,271.0135,165.5522,280.23,162.08" style="stroke:#181818;stroke-width:1.0;"/><text fill="#000000" font-family="sans-serif" font-size="13" lengthAdjust="spacing" textLength="86" x="145.5" y="156.897">iniciarPartida()</text></g><!--link EnCurso to Inactivo--><g id="link_EnCurso_Inactivo"><path d="M280.43,181.07 C267.42,185.91 252.55,190.58 238.5,193 C194.29,200.6 148.4475,197.1322 114.7375,192.6422 " fill="none" id="EnCurso-to-Inactivo" style="stroke:#181818;stroke-width:1.0;"/><polygon fill="#181818" points="108.79,191.85,117.1831,197.0032,113.7462,192.5101,118.2393,189.0733,108.79,191.85" style="stroke:#181818;stroke-width:1.0;"/><text fill="#000000" font-family="sans-serif" font-size="13" lengthAdjust="spacing" textLength="98" x="139.5" y="188.897">reiniciarPartida()</text></g><!--link EnCurso to EnCurso--><g id="link_EnCurso_EnCurso"><path d="M313.99,139.72 C312.62,122.23 314.12,105 318.5,105 C322.88,105 324.8485,116.2483 323.4785,133.7383 " fill="none" id="EnCurso-to-EnCurso" style="stroke:#181818;stroke-width:1.0;"/><polygon fill="#181818" points="323.01,139.72,327.7006,131.0598,323.4005,134.7353,319.725,130.4351,323.01,139.72" style="stroke:#181818;stroke-width:1.0;"/><text fill="#000000" font-family="sans-serif" font-size="13" lengthAdjust="spacing" textLength="78" x="279.5" y="95.897">moverPieza()</text></g><!--link EnCurso to EnCurso--><g id="link_EnCurso_EnCurso"><path d="M311.49,139.7 C305.85,107.89 308.19,70 318.5,70 C328.81,70 332.1975,101.9821 326.5575,133.7921 " fill="none" id="EnCurso-to-EnCurso-1" style="stroke:#181818;stroke-width:1.0;"/><polygon fill="#181818" points="325.51,139.7,331.0198,131.5365,326.3829,134.7768,323.1426,130.1399,325.51,139.7" style="stroke:#181818;stroke-width:1.0;"/><text fill="#000000" font-family="sans-serif" font-size="13" lengthAdjust="spacing" textLength="69" x="284" y="60.897">rotarPieza()</text></g><!--link EnCurso to EnCurso--><g id="link_EnCurso_EnCurso"><path d="M310.04,139.79 C299.08,94.72 301.9,35 318.5,35 C335.1,35 339.3377,88.8899 328.3777,133.9599 " fill="none" id="EnCurso-to-EnCurso-2" style="stroke:#181818;stroke-width:1.0;"/><polygon fill="#181818" points="326.96,139.79,332.9733,131.99,328.1415,134.9316,325.1999,130.0997,326.96,139.79" style="stroke:#181818;stroke-width:1.0;"/><text fill="#000000" font-family="sans-serif" font-size="13" lengthAdjust="spacing" textLength="146" x="245.5" y="25.897">alternarVelocidadCaida()</text></g><!--link EnCurso to Finalizado--><g id="link_EnCurso_Finalizado"><path d="M356.54,179.28 C378.47,187.74 400.7613,196.3425 423.7013,205.1825 " fill="none" id="EnCurso-to-Finalizado" style="stroke:#181818;stroke-width:1.0;"/><polygon fill="#181818" points="429.3,207.34,422.3403,200.3713,424.6344,205.5421,419.4637,207.8363,429.3,207.34" style="stroke:#181818;stroke-width:1.0;"/></g><!--link Finalizado to Inactivo--><g id="link_Finalizado_Inactivo"><path d="M429.49,225.01 C410.76,225.41 388.54,225.81 368.5,226 C324.06,226.43 312.82,229.39 268.5,226 C210.21,221.54 195.49,219.01 138.5,206 C128.76,203.78 124.0988,202.611 114.5288,199.691 " fill="none" id="Finalizado-to-Inactivo" style="stroke:#181818;stroke-width:1.0;"/><polygon fill="#181818" points="108.79,197.94,116.2309,204.3924,113.5723,199.3992,118.5656,196.7407,108.79,197.94" style="stroke:#181818;stroke-width:1.0;"/><text fill="#000000" font-family="sans-serif" font-size="13" lengthAdjust="spacing" textLength="98" x="269.5" y="221.897">reiniciarPartida()</text></g><!--SRC=[ZS-z2i9030Vm_PuYemfz0GUNek1M45p48Tn53LnpaCOEVNfFQMlzG1p_oU-IIwIJWILGFbyC0YjvuoJEDOP6i1NCkKrzN4jvrMP86nQCt658pXqMHoXMeuSbe2gAHzrnOrJZRExSs2qoxMTboSAUKIjKu_20G- -5rQabhPYwE_agD1d-5XYDL53t59FFoqA9xokpdnmsBK-EK_hyzFFL7_e6]--></g></svg>