<?xml version="1.0" encoding="us-ascii" standalone="no"?><svg xmlns="http://www.w3.org/2000/svg" xmlns:xlink="http://www.w3.org/1999/xlink" contentStyleType="text/css" height="193px" preserveAspectRatio="none" style="width:371px;height:193px;background:#FFFFFF;" version="1.1" viewBox="0 0 371 193" width="371px" zoomAndPan="magnify"><defs/><g><g id="Inactivo"><rect fill="#F1F1F1" height="50" rx="12.5" ry="12.5" style="stroke:#181818;stroke-width:0.5;" width="73" x="7" y="80"/><line style="stroke:#181818;stroke-width:0.5;" x1="7" x2="80" y1="109.0679" y2="109.0679"/><text fill="#000000" font-family="sans-serif" font-size="14" lengthAdjust="spacing" textLength="53" x="17" y="99.9659">Inactivo</text></g><g id="EnCurso"><rect fill="#F1F1F1" height="50" rx="12.5" ry="12.5" style="stroke:#181818;stroke-width:0.5;" width="76" x="140" y="41"/><line style="stroke:#181818;stroke-width:0.5;" x1="140" x2="216" y1="70.0679" y2="70.0679"/><text fill="#000000" font-family="sans-serif" font-size="14" lengthAdjust="spacing" textLength="56" x="150" y="60.9659">EnCurso</text></g><g id="Finalizado"><rect fill="#F1F1F1" height="50" rx="12.5" ry="12.5" style="stroke:#181818;stroke-width:0.5;" width="88" x="276" y="80"/><line style="stroke:#181818;stroke-width:0.5;" x1="276" x2="364" y1="109.0679" y2="109.0679"/><text fill="#000000" font-family="sans-serif" font-size="14" lengthAdjust="spacing" textLength="68" x="286" y="99.9659">Finalizado</text></g><ellipse cx="43.5" cy="35" fill="#222222" rx="10" ry="10" style="stroke:#222222;stroke-width:1.0;"/><ellipse cx="320" cy="176" fill="none" rx="11" ry="11" style="stroke:#222222;stroke-width:1.0;"/><ellipse cx="320" cy="176" fill="#222222" rx="6" ry="6" style="stroke:#222222;stroke-width:1.0;"/><!--link *start* to Inactivo--><g id="link_*start*_Inactivo"><path d="M43.5,45.16 C43.5,56.72 43.5,62.28 43.5,73.84 " fill="none" id="*start*-to-Inactivo" style="stroke:#181818;stroke-width:1.0;"/><polygon fill="#181818" points="43.5,79.84,47.5,70.84,43.5,74.84,39.5,70.84,43.5,79.84" style="stroke:#181818;stroke-width:1.0;"/></g><!--link Inactivo to EnCurso--><g id="link_Inactivo_EnCurso"><path d="M80.01,94.55 C98.41,89.13 115.1137,84.2127 133.7837,78.7227 " fill="none" id="Inactivo-to-EnCurso" style="stroke:#181818;stroke-width:1.0;"/><polygon fill="#181818" points="139.54,77.03,129.7771,75.7315,134.7431,78.4406,132.034,83.4065,139.54,77.03" style="stroke:#181818;stroke-width:1.0;"/></g><!--link EnCurso to Finalizado--><g id="link_EnCurso_Finalizado"><path d="M216.15,76.35 C234.54,81.47 251.0601,86.0696 270.1901,91.3996 " fill="none" id="EnCurso-to-Finalizado" style="stroke:#181818;stroke-width:1.0;"/><polygon fill="#181818" points="275.97,93.01,268.3738,86.7412,271.1535,91.668,266.2266,94.4477,275.97,93.01" style="stroke:#181818;stroke-width:1.0;"/></g><!--link EnCurso to EnCurso--><g id="link_EnCurso_EnCurso"><path d="M155.33,40.72 C148.46,23.23 156.02,6 178,6 C199.98,6 209.7336,17.6454 202.8636,35.1354 " fill="none" id="EnCurso-to-EnCurso" style="stroke:#181818;stroke-width:1.0;"/><polygon fill="#181818" points="200.67,40.72,207.6835,33.8055,202.498,36.0661,200.2373,30.8807,200.67,40.72" style="stroke:#181818;stroke-width:1.0;"/></g><!--link Finalizado to *end*--><g id="link_Finalizado_*end*"><path d="M320,130.27 C320,141.82 320,147.36 320,158.91 " fill="none" id="Finalizado-to-*end*" style="stroke:#181818;stroke-width:1.0;"/><polygon fill="#181818" points="320,164.91,324,155.91,320,159.91,316,155.91,320,164.91" style="stroke:#181818;stroke-width:1.0;"/></g><!--link Finalizado to Inactivo--><g id="link_Finalizado_Inactivo"><path d="M275.91,106.53 C257.46,107.12 235.68,107.71 216,108 C182.23,108.49 173.77,108.53 140,108 C120.26,107.69 104.2363,107.2308 86.3163,106.6008 " fill="none" id="Finalizado-to-Inactivo" style="stroke:#181818;stroke-width:1.0;"/><polygon fill="#181818" points="80.32,106.39,89.1739,110.7037,85.3169,106.5657,89.455,102.7087,80.32,106.39" style="stroke:#181818;stroke-width:1.0;"/></g><!--SRC=[oqbDAr4eoLSeoapFA558oInAJIx9pC_Zuk8gBaaiILNmp4i42fJbGxckUSwbHSKmdbjcNc9EPbLYIZuNLxHMh8Ak7K8zZA6W2nI5QOFIO34apN1XX4g4B4WKQ3YQ2DmU0000]--></g></svg>