<?xml version="1.0" encoding="us-ascii" standalone="no"?><svg xmlns="http://www.w3.org/2000/svg" xmlns:xlink="http://www.w3.org/1999/xlink" contentStyleType="text/css" height="184px" preserveAspectRatio="none" style="width:671px;height:184px;background:#FFFFFF;" version="1.1" viewBox="0 0 671 184" width="671px" zoomAndPan="magnify"><defs/><g><g id="Inactivo"><rect fill="#F1F1F1" height="50" rx="12.5" ry="12.5" style="stroke:#181818;stroke-width:0.5;" width="73" x="7" y="128"/><line style="stroke:#181818;stroke-width:0.5;" x1="7" x2="80" y1="157.0679" y2="157.0679"/><text fill="#000000" font-family="sans-serif" font-size="14" lengthAdjust="spacing" textLength="53" x="17" y="147.9659">Inactivo</text></g><g id="EnCurso"><rect fill="#F1F1F1" height="50" rx="12.5" ry="12.5" style="stroke:#181818;stroke-width:0.5;" width="76" x="141" y="70"/><line style="stroke:#181818;stroke-width:0.5;" x1="141" x2="217" y1="99.0679" y2="99.0679"/><text fill="#000000" font-family="sans-serif" font-size="14" lengthAdjust="spacing" textLength="56" x="151" y="89.9659">EnCurso</text></g><g id="Finalizado"><rect fill="#F1F1F1" height="50" rx="12.5" ry="12.5" style="stroke:#181818;stroke-width:0.5;" width="88" x="576" y="119"/><line style="stroke:#181818;stroke-width:0.5;" x1="576" x2="664" y1="148.0679" y2="148.0679"/><text fill="#000000" font-family="sans-serif" font-size="14" lengthAdjust="spacing" textLength="68" x="586" y="138.9659">Finalizado</text></g><ellipse cx="43.5" cy="83" fill="#222222" rx="10" ry="10" style="stroke:#222222;stroke-width:1.0;"/><!--link *start* to Inactivo--><g id="link_*start*_Inactivo"><path d="M43.5,93.16 C43.5,104.72 43.5,110.28 43.5,121.84 " fill="none" id="*start*-to-Inactivo" style="stroke:#181818;stroke-width:1.0;"/><polygon fill="#181818" points="43.5,127.84,47.5,118.84,43.5,122.84,39.5,118.84,43.5,127.84" style="stroke:#181818;stroke-width:1.0;"/></g><!--link Inactivo to EnCurso--><g id="link_Inactivo_EnCurso"><path d="M80.28,137.46 C98.97,129.34 116.3174,121.8019 135.2274,113.5819 " fill="none" id="Inactivo-to-EnCurso" style="stroke:#181818;stroke-width:1.0;"/><polygon fill="#181818" points="140.73,111.19,130.8815,111.1095,136.1445,113.1833,134.0707,118.4463,140.73,111.19" style="stroke:#181818;stroke-width:1.0;"/></g><!--link EnCurso to EnCurso--><g id="link_EnCurso_EnCurso"><path d="M167.5,69.72 C164.01,52.23 167.84,35 179,35 C190.16,35 195.1641,46.346 191.6741,63.836 " fill="none" id="EnCurso-to-EnCurso" style="stroke:#181818;stroke-width:1.0;"/><polygon fill="#181818" points="190.5,69.72,196.1838,61.6767,191.4784,64.8167,188.3385,60.1113,190.5,69.72" style="stroke:#181818;stroke-width:1.0;"/><text fill="#000000" font-family="sans-serif" font-size="13" lengthAdjust="spacing" textLength="101" x="128.5" y="25.897">descenderPieza()</text></g><!--link EnCurso to Finalizado--><g id="link_EnCurso_Finalizado"><path d="M217.05,99.14 C297.88,108.16 483.7071,128.8941 569.8471,138.5141 " fill="none" id="EnCurso-to-Finalizado" style="stroke:#181818;stroke-width:1.0;"/><polygon fill="#181818" points="575.81,139.18,567.3096,134.2058,570.8409,138.6251,566.4217,142.1564,575.81,139.18" style="stroke:#181818;stroke-width:1.0;"/><text fill="#000000" font-family="sans-serif" font-size="13" lengthAdjust="spacing" textLength="297" x="248" y="99.897">descenderPieza [no hay espacio para nueva pieza]</text></g><!--link Finalizado to Inactivo--><g id="link_Finalizado_Inactivo"><path d="M575.69,144.68 C466.3,146.39 186.4293,150.7762 85.9993,152.3462 " fill="none" id="Finalizado-to-Inactivo" style="stroke:#181818;stroke-width:1.0;"/><polygon fill="#181818" points="80,152.44,89.0614,156.2988,84.9994,152.3618,88.9364,148.2998,80,152.44" style="stroke:#181818;stroke-width:1.0;"/></g><!--SRC=[POwn2i9044Jx_OefLSWFMDY8WfrzIB7ShMOXx8MxIy1ylH4Ixi1ktl26tK5U6JaWwhlFy1h5PGr6b39dmSDuvJbiUBFh5DDETpKUT64VYDfJX-PIVDeJchNUTxG5b0vdU4bEp4jygYnyE5RQwfKhVofQ2-Zv0qaZEmqOEJ9iafan_eIEg9etzODV]--></g></svg>