<svg xmlns="http://www.w3.org/2000/svg" xmlns:xlink="http://www.w3.org/1999/xlink" contentStyleType="text/css" data-diagram-type="STATE" height="286px" preserveAspectRatio="none" style="width:655px;height:286px;background:#FFFFFF;" version="1.1" viewBox="0 0 655 286" width="655px" zoomAndPan="magnify"><defs/><g><g id="Inactivo"><rect fill="#F1F1F1" height="50" rx="12.5" ry="12.5" style="stroke:#181818;stroke-width:0.5;" width="75.5078" x="39" y="202"/><line style="stroke:#181818;stroke-width:0.5;" x1="39" x2="114.5078" y1="228.2969" y2="228.2969"/><text fill="#000000" font-family="sans-serif" font-size="14" lengthAdjust="spacing" textLength="55.5078" x="49" y="219.9951">Inactivo</text></g><g id="EnCurso"><rect fill="#F1F1F1" height="50" rx="12.5" ry="12.5" style="stroke:#181818;stroke-width:0.5;" width="77.9824" x="305.5" y="173"/><line style="stroke:#181818;stroke-width:0.5;" x1="305.5" x2="383.4824" y1="199.2969" y2="199.2969"/><text fill="#000000" font-family="sans-serif" font-size="14" lengthAdjust="spacing" textLength="57.9824" x="315.5" y="190.9951">EnCurso</text></g><g id="Finalizado"><rect fill="#F1F1F1" height="50" rx="12.5" ry="12.5" style="stroke:#181818;stroke-width:0.5;" width="90.5537" x="558" y="202"/><line style="stroke:#181818;stroke-width:0.5;" x1="558" x2="648.5537" y1="228.2969" y2="228.2969"/><text fill="#000000" font-family="sans-serif" font-size="14" lengthAdjust="spacing" textLength="70.5537" x="568" y="219.9951">Finalizado</text></g><ellipse cx="77" cy="140" fill="#222222" rx="10" ry="10" style="stroke:#222222;stroke-width:1;"/><!--link *start* to Inactivo--><g class="link" data-entity-1="*start*" data-entity-2="Inactivo" data-source-line="7" data-uid="lnk3" id="link_*start*_Inactivo"><path d="M77,150.03 C77,162.6 77,178.57 77,195.84" fill="none" id="*start*-to-Inactivo" style="stroke:#181818;stroke-width:1;"/><polygon fill="#181818" points="77,201.84,81,192.84,77,196.84,73,192.84,77,201.84" style="stroke:#181818;stroke-width:1;"/><text fill="#000000" font-family="sans-serif" font-size="13" lengthAdjust="spacing" textLength="117.8252" x="7" y="180.5669">arrancarSistema()</text></g><!--link Inactivo to EnCurso--><g class="link" data-entity-1="Inactivo" data-entity-2="EnCurso" data-source-line="9" data-uid="lnk4" id="link_Inactivo_EnCurso"><path d="M115.27,215.53 C124.87,212.97 135.25,210.57 145,209 C200.21,200.15 259.0302,198.1478 299.2002,197.8278" fill="none" id="Inactivo-to-EnCurso" style="stroke:#181818;stroke-width:1;"/><polygon fill="#181818" points="305.2,197.78,296.1684,193.8518,300.2002,197.8198,296.2321,201.8516,305.2,197.78" style="stroke:#181818;stroke-width:1;"/><text fill="#000000" font-family="sans-serif" font-size="13" lengthAdjust="spacing" textLength="95.7544" x="154" y="195.0669">iniciarPartida()</text></g><!--link EnCurso to Inactivo--><g class="link" data-entity-1="EnCurso" data-entity-2="Inactivo" data-source-line="18" data-uid="lnk10" id="link_EnCurso_Inactivo"><path d="M305.39,217.88 C290.95,224.37 274.1,230.75 258,234 C209.41,243.81 157.9295,239.6399 121.2395,234.3899" fill="none" id="EnCurso-to-Inactivo" style="stroke:#181818;stroke-width:1;"/><polygon fill="#181818" points="115.3,233.54,123.6427,238.7745,120.2496,234.2482,124.7758,230.8552,115.3,233.54" style="stroke:#181818;stroke-width:1;"/><text fill="#000000" font-family="sans-serif" font-size="13" lengthAdjust="spacing" textLength="111.6426" x="146" y="230.0669">cancelarPartida()</text></g><!--link EnCurso to EnCurso--><g class="link" data-entity-1="EnCurso" data-entity-2="EnCurso" data-source-line="11" data-uid="lnk5" id="link_EnCurso_EnCurso"><path d="M338.83,172.72 C337.11,155.23 339,138 344.5,138 C350,138 352.4772,149.2588 350.7572,166.7488" fill="none" id="EnCurso-to-EnCurso" style="stroke:#181818;stroke-width:1;"/><polygon fill="#181818" points="350.17,172.72,355.0316,164.1547,350.6593,167.744,347.07,163.3717,350.17,172.72" style="stroke:#181818;stroke-width:1;"/><text fill="#000000" font-family="sans-serif" font-size="13" lengthAdjust="spacing" textLength="86.0361" x="301.5" y="129.0669">moverPieza()</text></g><!--link EnCurso to EnCurso--><g class="link" data-entity-1="EnCurso" data-entity-2="EnCurso" data-source-line="12" data-uid="lnk6" id="link_EnCurso_EnCurso"><path d="M335.69,172.71 C328.61,140.89 331.54,103 344.5,103 C357.46,103 361.6931,135.0332 354.6131,166.8532" fill="none" id="EnCurso-to-EnCurso-1" style="stroke:#181818;stroke-width:1;"/><polygon fill="#181818" points="353.31,172.71,359.1692,164.7936,354.396,167.8294,351.3602,163.0561,353.31,172.71" style="stroke:#181818;stroke-width:1;"/><text fill="#000000" font-family="sans-serif" font-size="13" lengthAdjust="spacing" textLength="76.0894" x="306.5" y="94.0669">rotarPieza()</text></g><!--link EnCurso to EnCurso--><g class="link" data-entity-1="EnCurso" data-entity-2="EnCurso" data-source-line="13" data-uid="lnk7" id="link_EnCurso_EnCurso"><path d="M333.87,172.8 C320.1,127.72 323.64,68 344.5,68 C365.36,68 370.6528,121.9817 356.8828,167.0617" fill="none" id="EnCurso-to-EnCurso-2" style="stroke:#181818;stroke-width:1;"/><polygon fill="#181818" points="355.13,172.8,361.5847,165.3611,356.5907,168.0181,353.9337,163.0241,355.13,172.8" style="stroke:#181818;stroke-width:1;"/><text fill="#000000" font-family="sans-serif" font-size="13" lengthAdjust="spacing" textLength="162.2715" x="263.5" y="59.0669">alternarVelocidadCaida()</text></g><!--link EnCurso to EnCurso--><g class="link" data-entity-1="EnCurso" data-entity-2="EnCurso" data-source-line="15" data-uid="lnk8" id="link_EnCurso_EnCurso"><path d="M332.64,172.78 C311.63,114.98 315.58,33 344.5,33 C373.42,33 379.4198,109.341 358.4098,167.141" fill="none" id="EnCurso-to-EnCurso-3" style="stroke:#181818;stroke-width:1;"/><polygon fill="#181818" points="356.36,172.78,363.194,165.688,358.0681,168.0808,355.6753,162.955,356.36,172.78" style="stroke:#181818;stroke-width:1;"/><text fill="#000000" font-family="sans-serif" font-size="13" lengthAdjust="spacing" textLength="95.7544" x="297" y="24.0669">iniciarPartida()</text></g><!--link EnCurso to Finalizado--><g class="link" data-entity-1="EnCurso" data-entity-2="Finalizado" data-source-line="17" data-uid="lnk9" id="link_EnCurso_Finalizado"><path d="M383.8,198.35 C420.87,199.14 478.56,201.6 528,209 C537.74,210.46 542.227,211.2164 551.997,213.4964" fill="none" id="EnCurso-to-Finalizado" style="stroke:#181818;stroke-width:1;"/><polygon fill="#181818" points="557.84,214.86,549.9845,208.9193,552.9708,213.7237,548.1665,216.71,557.84,214.86" style="stroke:#181818;stroke-width:1;"/></g><!--link Finalizado to EnCurso--><g class="link" data-entity-1="Finalizado" data-entity-2="EnCurso" data-source-line="22" data-uid="lnk12" id="link_Finalizado_EnCurso"><path d="M557.98,234.59 C523.09,239.15 473.5,242.58 431,234 C414.9,230.75 403.5227,226.8297 389.0827,220.3397" fill="none" id="Finalizado-to-EnCurso" style="stroke:#181818;stroke-width:1;"/><polygon fill="#181818" points="383.61,217.88,390.1792,225.2179,388.1706,219.9297,393.4588,217.9211,383.61,217.88" style="stroke:#181818;stroke-width:1;"/><text fill="#000000" font-family="sans-serif" font-size="13" lengthAdjust="spacing" textLength="95.7544" x="432" y="230.0669">iniciarPartida()</text></g><!--link Finalizado to Inactivo--><g class="link" data-entity-1="Finalizado" data-entity-2="Inactivo" data-source-line="20" data-uid="lnk11" id="link_Finalizado_Inactivo"><path d="M557.93,241.16 C548.15,243.82 537.8,246.29 528,248 C360.31,277.26 312.37,279.03 145,248 C135.17,246.18 130.5008,245.1471 120.8908,242.1671" fill="none" id="Finalizado-to-Inactivo" style="stroke:#181818;stroke-width:1;"/><polygon fill="#181818" points="115.16,240.39,122.5715,246.8762,119.9357,241.8709,124.9409,239.2351,115.16,240.39" style="stroke:#181818;stroke-width:1;"/><text fill="#000000" font-family="sans-serif" font-size="13" lengthAdjust="spacing" textLength="111.6426" x="289" y="264.0669">cancelarPartida()</text></g><!--SRC=[bT2z2i90303W_PxYHXLy0GUNek1M45p48Tn53LmJI6E7FhsdjBK5BJZcybt-4bxDctYbszry9CLW9EnSRM3e3mmvRgGBTrmyjEwZFJ4aQY6AS-VLnQ-tW_SR3wh00VH8jM45YwLpGtQTQLShIs8A15g26iKtx7CJLac3MXAsB_9Lg1ZC2qY6og0dJ19oirZ0NCkPoR8RxJz-7jqWv0jWcXJuVFeV_nxi2G00]--></g></svg>