<?xml version="1.0" encoding="us-ascii" standalone="no"?><svg xmlns="http://www.w3.org/2000/svg" xmlns:xlink="http://www.w3.org/1999/xlink" contentStyleType="text/css" height="443px" preserveAspectRatio="none" style="width:526px;height:443px;background:#FFFFFF;" version="1.1" viewBox="0 0 526 443" width="526px" zoomAndPan="magnify"><defs/><g><!--class Juego--><g id="elem_Juego"><rect fill="#F1F1F1" height="48" id="Juego" rx="2.5" ry="2.5" style="stroke:#181818;stroke-width:0.5;" width="70" x="219.9" y="7"/><ellipse cx="234.9" cy="23" fill="#ADD1B2" rx="11" ry="11" style="stroke:#181818;stroke-width:1.0;"/><path d="M237.8687,28.6406 Q237.2906,28.9375 236.65,29.0781 Q236.0094,29.2344 235.3062,29.2344 Q232.8062,29.2344 231.4781,27.5938 Q230.1656,25.9375 230.1656,22.8125 Q230.1656,19.6875 231.4781,18.0313 Q232.8062,16.375 235.3062,16.375 Q236.0094,16.375 236.65,16.5313 Q237.3062,16.6875 237.8687,16.9844 L237.8687,19.7031 Q237.2437,19.125 236.65,18.8594 Q236.0562,18.5781 235.4312,18.5781 Q234.0875,18.5781 233.4,19.6563 Q232.7125,20.7188 232.7125,22.8125 Q232.7125,24.9063 233.4,25.9844 Q234.0875,27.0469 235.4312,27.0469 Q236.0562,27.0469 236.65,26.7813 Q237.2437,26.5 237.8687,25.9219 L237.8687,28.6406 Z " fill="#000000"/><text fill="#000000" font-family="sans-serif" font-size="14" lengthAdjust="spacing" textLength="38" x="248.9" y="28.432">Juego</text><line style="stroke:#181818;stroke-width:0.5;" x1="220.9" x2="288.9" y1="39" y2="39"/><line style="stroke:#181818;stroke-width:0.5;" x1="220.9" x2="288.9" y1="47" y2="47"/></g><!--class Tablero--><g id="elem_Tablero"><rect fill="#F1F1F1" height="48" id="Tablero" rx="2.5" ry="2.5" style="stroke:#181818;stroke-width:0.5;" width="83" x="101.4" y="134"/><ellipse cx="116.4" cy="150" fill="#ADD1B2" rx="11" ry="11" style="stroke:#181818;stroke-width:1.0;"/><path d="M119.3688,155.6406 Q118.7906,155.9375 118.15,156.0781 Q117.5094,156.2344 116.8063,156.2344 Q114.3063,156.2344 112.9781,154.5938 Q111.6656,152.9375 111.6656,149.8125 Q111.6656,146.6875 112.9781,145.0313 Q114.3063,143.375 116.8063,143.375 Q117.5094,143.375 118.15,143.5313 Q118.8063,143.6875 119.3688,143.9844 L119.3688,146.7031 Q118.7438,146.125 118.15,145.8594 Q117.5563,145.5781 116.9313,145.5781 Q115.5875,145.5781 114.9,146.6563 Q114.2125,147.7188 114.2125,149.8125 Q114.2125,151.9063 114.9,152.9844 Q115.5875,154.0469 116.9313,154.0469 Q117.5563,154.0469 118.15,153.7813 Q118.7438,153.5 119.3688,152.9219 L119.3688,155.6406 Z " fill="#000000"/><text fill="#000000" font-family="sans-serif" font-size="14" lengthAdjust="spacing" textLength="51" x="130.4" y="155.432">Tablero</text><line style="stroke:#181818;stroke-width:0.5;" x1="102.4" x2="183.4" y1="166" y2="166"/><line style="stroke:#181818;stroke-width:0.5;" x1="102.4" x2="183.4" y1="174" y2="174"/></g><!--class Pieza--><g id="elem_Pieza"><rect fill="#F1F1F1" height="48" id="Pieza" rx="2.5" ry="2.5" style="stroke:#181818;stroke-width:0.5;" width="67" x="293.4" y="261"/><ellipse cx="308.4" cy="277" fill="#ADD1B2" rx="11" ry="11" style="stroke:#181818;stroke-width:1.0;"/><path d="M311.3688,282.6406 Q310.7906,282.9375 310.15,283.0781 Q309.5094,283.2344 308.8063,283.2344 Q306.3063,283.2344 304.9781,281.5938 Q303.6656,279.9375 303.6656,276.8125 Q303.6656,273.6875 304.9781,272.0313 Q306.3063,270.375 308.8063,270.375 Q309.5094,270.375 310.15,270.5313 Q310.8063,270.6875 311.3688,270.9844 L311.3688,273.7031 Q310.7438,273.125 310.15,272.8594 Q309.5563,272.5781 308.9313,272.5781 Q307.5875,272.5781 306.9,273.6563 Q306.2125,274.7188 306.2125,276.8125 Q306.2125,278.9063 306.9,279.9844 Q307.5875,281.0469 308.9313,281.0469 Q309.5563,281.0469 310.15,280.7813 Q310.7438,280.5 311.3688,279.9219 L311.3688,282.6406 Z " fill="#000000"/><text fill="#000000" font-family="sans-serif" font-size="14" lengthAdjust="spacing" textLength="35" x="322.4" y="282.432">Pieza</text><line style="stroke:#181818;stroke-width:0.5;" x1="294.4" x2="359.4" y1="293" y2="293"/><line style="stroke:#181818;stroke-width:0.5;" x1="294.4" x2="359.4" y1="301" y2="301"/></g><!--class Turno--><g id="elem_Turno"><rect fill="#F1F1F1" height="48" id="Turno" rx="2.5" ry="2.5" style="stroke:#181818;stroke-width:0.5;" width="72" x="427.9" y="134"/><ellipse cx="442.9" cy="150" fill="#ADD1B2" rx="11" ry="11" style="stroke:#181818;stroke-width:1.0;"/><path d="M445.8688,155.6406 Q445.2906,155.9375 444.65,156.0781 Q444.0094,156.2344 443.3063,156.2344 Q440.8063,156.2344 439.4781,154.5938 Q438.1656,152.9375 438.1656,149.8125 Q438.1656,146.6875 439.4781,145.0313 Q440.8063,143.375 443.3063,143.375 Q444.0094,143.375 444.65,143.5313 Q445.3063,143.6875 445.8688,143.9844 L445.8688,146.7031 Q445.2438,146.125 444.65,145.8594 Q444.0563,145.5781 443.4313,145.5781 Q442.0875,145.5781 441.4,146.6563 Q440.7125,147.7188 440.7125,149.8125 Q440.7125,151.9063 441.4,152.9844 Q442.0875,154.0469 443.4313,154.0469 Q444.0563,154.0469 444.65,153.7813 Q445.2438,153.5 445.8688,152.9219 L445.8688,155.6406 Z " fill="#000000"/><text fill="#000000" font-family="sans-serif" font-size="14" lengthAdjust="spacing" textLength="40" x="456.9" y="155.432">Turno</text><line style="stroke:#181818;stroke-width:0.5;" x1="428.9" x2="498.9" y1="166" y2="166"/><line style="stroke:#181818;stroke-width:0.5;" x1="428.9" x2="498.9" y1="174" y2="174"/></g><!--class Celda--><g id="elem_Celda"><rect fill="#F1F1F1" height="48" id="Celda" rx="2.5" ry="2.5" style="stroke:#181818;stroke-width:0.5;" width="70" x="135.9" y="388"/><ellipse cx="150.9" cy="404" fill="#ADD1B2" rx="11" ry="11" style="stroke:#181818;stroke-width:1.0;"/><path d="M153.8688,409.6406 Q153.2906,409.9375 152.65,410.0781 Q152.0094,410.2344 151.3063,410.2344 Q148.8063,410.2344 147.4781,408.5938 Q146.1656,406.9375 146.1656,403.8125 Q146.1656,400.6875 147.4781,399.0313 Q148.8063,397.375 151.3063,397.375 Q152.0094,397.375 152.65,397.5313 Q153.3063,397.6875 153.8688,397.9844 L153.8688,400.7031 Q153.2438,400.125 152.65,399.8594 Q152.0563,399.5781 151.4313,399.5781 Q150.0875,399.5781 149.4,400.6563 Q148.7125,401.7188 148.7125,403.8125 Q148.7125,405.9063 149.4,406.9844 Q150.0875,408.0469 151.4313,408.0469 Q152.0563,408.0469 152.65,407.7813 Q153.2438,407.5 153.8688,406.9219 L153.8688,409.6406 Z " fill="#000000"/><text fill="#000000" font-family="sans-serif" font-size="14" lengthAdjust="spacing" textLength="38" x="164.9" y="409.432">Celda</text><line style="stroke:#181818;stroke-width:0.5;" x1="136.9" x2="204.9" y1="420" y2="420"/><line style="stroke:#181818;stroke-width:0.5;" x1="136.9" x2="204.9" y1="428" y2="428"/></g><!--class Linea--><g id="elem_Linea"><rect fill="#F1F1F1" height="48" id="Linea" rx="2.5" ry="2.5" style="stroke:#181818;stroke-width:0.5;" width="68" x="154.9" y="261"/><ellipse cx="169.9" cy="277" fill="#ADD1B2" rx="11" ry="11" style="stroke:#181818;stroke-width:1.0;"/><path d="M172.8687,282.6406 Q172.2906,282.9375 171.65,283.0781 Q171.0094,283.2344 170.3062,283.2344 Q167.8062,283.2344 166.4781,281.5938 Q165.1656,279.9375 165.1656,276.8125 Q165.1656,273.6875 166.4781,272.0313 Q167.8062,270.375 170.3062,270.375 Q171.0094,270.375 171.65,270.5313 Q172.3062,270.6875 172.8687,270.9844 L172.8687,273.7031 Q172.2437,273.125 171.65,272.8594 Q171.0562,272.5781 170.4312,272.5781 Q169.0875,272.5781 168.4,273.6563 Q167.7125,274.7188 167.7125,276.8125 Q167.7125,278.9063 168.4,279.9844 Q169.0875,281.0469 170.4312,281.0469 Q171.0562,281.0469 171.65,280.7813 Q172.2437,280.5 172.8687,279.9219 L172.8687,282.6406 Z " fill="#000000"/><text fill="#000000" font-family="sans-serif" font-size="14" lengthAdjust="spacing" textLength="36" x="183.9" y="282.432">Linea</text><line style="stroke:#181818;stroke-width:0.5;" x1="155.9" x2="221.9" y1="293" y2="293"/><line style="stroke:#181818;stroke-width:0.5;" x1="155.9" x2="221.9" y1="301" y2="301"/></g><!--class TipoPieza--><g id="elem_TipoPieza"><rect fill="#F1F1F1" height="48" id="TipoPieza" rx="2.5" ry="2.5" style="stroke:#181818;stroke-width:0.5;" width="96" x="295.9" y="388"/><ellipse cx="310.9" cy="404" fill="#ADD1B2" rx="11" ry="11" style="stroke:#181818;stroke-width:1.0;"/><path d="M313.8688,409.6406 Q313.2906,409.9375 312.65,410.0781 Q312.0094,410.2344 311.3063,410.2344 Q308.8063,410.2344 307.4781,408.5938 Q306.1656,406.9375 306.1656,403.8125 Q306.1656,400.6875 307.4781,399.0313 Q308.8063,397.375 311.3063,397.375 Q312.0094,397.375 312.65,397.5313 Q313.3063,397.6875 313.8688,397.9844 L313.8688,400.7031 Q313.2438,400.125 312.65,399.8594 Q312.0563,399.5781 311.4313,399.5781 Q310.0875,399.5781 309.4,400.6563 Q308.7125,401.7188 308.7125,403.8125 Q308.7125,405.9063 309.4,406.9844 Q310.0875,408.0469 311.4313,408.0469 Q312.0563,408.0469 312.65,407.7813 Q313.2438,407.5 313.8688,406.9219 L313.8688,409.6406 Z " fill="#000000"/><text fill="#000000" font-family="sans-serif" font-size="14" lengthAdjust="spacing" textLength="64" x="324.9" y="409.432">TipoPieza</text><line style="stroke:#181818;stroke-width:0.5;" x1="296.9" x2="390.9" y1="420" y2="420"/><line style="stroke:#181818;stroke-width:0.5;" x1="296.9" x2="390.9" y1="428" y2="428"/></g><!--class Movimiento--><g id="elem_Movimiento"><rect fill="#F1F1F1" height="48" id="Movimiento" rx="2.5" ry="2.5" style="stroke:#181818;stroke-width:0.5;" width="111" x="408.4" y="261"/><ellipse cx="423.4" cy="277" fill="#ADD1B2" rx="11" ry="11" style="stroke:#181818;stroke-width:1.0;"/><path d="M426.3688,282.6406 Q425.7906,282.9375 425.15,283.0781 Q424.5094,283.2344 423.8063,283.2344 Q421.3063,283.2344 419.9781,281.5938 Q418.6656,279.9375 418.6656,276.8125 Q418.6656,273.6875 419.9781,272.0313 Q421.3063,270.375 423.8063,270.375 Q424.5094,270.375 425.15,270.5313 Q425.8063,270.6875 426.3688,270.9844 L426.3688,273.7031 Q425.7438,273.125 425.15,272.8594 Q424.5563,272.5781 423.9313,272.5781 Q422.5875,272.5781 421.9,273.6563 Q421.2125,274.7188 421.2125,276.8125 Q421.2125,278.9063 421.9,279.9844 Q422.5875,281.0469 423.9313,281.0469 Q424.5563,281.0469 425.15,280.7813 Q425.7438,280.5 426.3688,279.9219 L426.3688,282.6406 Z " fill="#000000"/><text fill="#000000" font-family="sans-serif" font-size="14" lengthAdjust="spacing" textLength="79" x="437.4" y="282.432">Movimiento</text><line style="stroke:#181818;stroke-width:0.5;" x1="409.4" x2="518.4" y1="293" y2="293"/><line style="stroke:#181818;stroke-width:0.5;" x1="409.4" x2="518.4" y1="301" y2="301"/></g><!--reverse link Juego to Tablero--><g id="link_Juego_Tablero"><path codeLine="2" d="M208.6327,48.0163 C188.2427,56.4063 174.81,65.26 159.9,85 C149.29,99.04 145.17,118.67 143.63,133.89 " fill="none" id="Juego-backto-Tablero" style="stroke:#181818;stroke-width:1.0;"/><polygon fill="#181818" points="219.73,43.45,212.6593,42.034,208.6327,48.0163,215.7035,49.4322,219.73,43.45" style="stroke:#181818;stroke-width:1.0;"/><text fill="#000000" font-family="sans-serif" font-size="13" lengthAdjust="spacing" textLength="67" x="160.9" y="99.897">se juega en</text></g><!--reverse link Juego to Pieza--><g id="link_Juego_Pieza"><path codeLine="3" d="M255.3904,67.1557 C256.1904,97.1057 259.31,138.57 272.9,182 C281.87,210.68 298.87,240.77 311.41,260.77 " fill="none" id="Juego-backto-Pieza" style="stroke:#181818;stroke-width:1.0;"/><polygon fill="none" points="255.07,55.16,251.2316,61.2647,255.3904,67.1557,259.2288,61.0511,255.07,55.16" style="stroke:#181818;stroke-width:1.0;"/><text fill="#000000" font-family="sans-serif" font-size="13" lengthAdjust="spacing" textLength="136" x="273.9" y="163.397">contiene piezas activas</text></g><!--reverse link Juego to Turno--><g id="link_Juego_Turno"><path codeLine="4" d="M300.6482,59.3601 C338.8482,82.2101 389.03,112.22 427.57,135.27 " fill="none" id="Juego-backto-Turno" style="stroke:#181818;stroke-width:1.0;"/><polygon fill="#181818" points="290.35,53.2,293.4458,59.7128,300.6482,59.3601,297.5525,52.8473,290.35,53.2" style="stroke:#181818;stroke-width:1.0;"/><text fill="#000000" font-family="sans-serif" font-size="13" lengthAdjust="spacing" textLength="136" x="372.9" y="99.897">se desarrolla en turnos</text></g><!--reverse link Tablero to Celda--><g id="link_Tablero_Celda"><path codeLine="6" d="M94.3262,188.9719 C52.8462,217.0819 6,260.04 30.9,309 C52.71,351.89 101.95,381.01 135.8,396.82 " fill="none" id="Tablero-backto-Celda" style="stroke:#181818;stroke-width:1.0;"/><polygon fill="#181818" points="104.26,182.24,97.0491,182.2947,94.3262,188.9719,101.5371,188.9172,104.26,182.24" style="stroke:#181818;stroke-width:1.0;"/><text fill="#000000" font-family="sans-serif" font-size="13" lengthAdjust="spacing" textLength="104" x="31.9" y="290.397">est&#225; formado por</text></g><!--reverse link Tablero to Linea--><g id="link_Tablero_Linea"><path codeLine="7" d="M136.0751,194.0139 C133.9551,208.5239 134.92,215.48 140.9,231 C145.19,242.12 153.01,252.35 161.11,260.8 " fill="none" id="Tablero-backto-Linea" style="stroke:#181818;stroke-width:1.0;"/><polygon fill="#181818" points="137.81,182.14,132.9846,187.4987,136.0751,194.0139,140.9006,188.6553,137.81,182.14" style="stroke:#181818;stroke-width:1.0;"/><text fill="#000000" font-family="sans-serif" font-size="13" lengthAdjust="spacing" textLength="86" x="141.9" y="226.897">se organiza en</text></g><!--link Pieza to TipoPieza--><g id="link_Pieza_TipoPieza"><path codeLine="9" d="M330.06,309.22 C333.11,331.67 336.9009,359.5548 339.9509,381.9648 " fill="none" id="Pieza-to-TipoPieza" style="stroke:#181818;stroke-width:1.0;"/><polygon fill="#181818" points="340.76,387.91,343.5098,378.4528,340.0857,382.9557,335.5828,379.5316,340.76,387.91" style="stroke:#181818;stroke-width:1.0;"/><text fill="#000000" font-family="sans-serif" font-size="13" lengthAdjust="spacing" textLength="58" x="336.9" y="353.897">es de tipo</text></g><!--link Pieza to Celda--><g id="link_Pieza_Celda"><path codeLine="10" d="M297.92,309.22 C269.9,331.67 232.3724,361.7484 204.4024,384.1584 " fill="none" id="Pieza-to-Celda" style="stroke:#181818;stroke-width:1.0;"/><polygon fill="#181818" points="199.72,387.91,209.2447,385.4042,203.622,384.7836,204.2426,379.1609,199.72,387.91" style="stroke:#181818;stroke-width:1.0;"/><text fill="#000000" font-family="sans-serif" font-size="13" lengthAdjust="spacing" textLength="37" x="258.9" y="353.897">ocupa</text></g><!--link Turno to Pieza--><g id="link_Turno_Pieza"><path codeLine="12" d="M434.25,182.13 C422.97,191.2 410.13,201.85 398.9,212 C381.58,227.64 367.1563,241.9921 353.1963,256.3921 " fill="none" id="Turno-to-Pieza" style="stroke:#181818;stroke-width:1.0;"/><polygon fill="#181818" points="349.02,260.7,358.1564,257.0223,352.5003,257.11,352.4125,251.4539,349.02,260.7" style="stroke:#181818;stroke-width:1.0;"/><text fill="#000000" font-family="sans-serif" font-size="13" lengthAdjust="spacing" textLength="55" x="399.9" y="226.897">involucra</text></g><!--reverse link Turno to Movimiento--><g id="link_Turno_Movimiento"><path codeLine="13" d="M463.9,194.22 C463.9,216.67 463.9,238.5 463.9,260.91 " fill="none" id="Turno-backto-Movimiento" style="stroke:#181818;stroke-width:1.0;"/><polygon fill="none" points="463.9,182.22,459.9,188.22,463.9,194.22,467.9,188.22,463.9,182.22" style="stroke:#181818;stroke-width:1.0;"/><text fill="#000000" font-family="sans-serif" font-size="13" lengthAdjust="spacing" textLength="47" x="464.9" y="226.897">permite</text></g><!--reverse link Linea to Celda--><g id="link_Linea_Celda"><path codeLine="15" d="M172.8253,320.2135 C168.9653,329.2935 169.83,328.89 167.9,339 C164.83,355.1 165.68,373.57 167.25,387.78 " fill="none" id="Linea-backto-Celda" style="stroke:#181818;stroke-width:1.0;"/><polygon fill="#181818" points="177.52,309.17,171.4915,313.1269,172.8253,320.2135,178.8538,316.2567,177.52,309.17" style="stroke:#181818;stroke-width:1.0;"/><text fill="#000000" font-family="sans-serif" font-size="13" lengthAdjust="spacing" textLength="52" x="168.9" y="353.897">contiene</text></g><!--SRC=[LP0n3i8m34NtdiBAYDGBCB2mLI0nS07JcieeZICdxT3RS1OkHfBIYgx-pz__kncf5pZKDTpnOKa5Zc02mIlD4SYPgYc49EB6D6FMMt6HoH7uF0c0RUG9myeMjr7TwjLHG5MnDXj2p4fYg_LWnizaks9D8NxUy1GTi1FmecR7NTWH_cn5UtGyBoch9LnTd-3ENhQe5D9vY6ba_f3jdBIZnvobnCtIjibk4ZksckH5pI-uoiH3gXvBDqywSAIql-JQDLcVPAel]--></g></svg>