<?xml version="1.0" encoding="us-ascii" standalone="no"?><svg xmlns="http://www.w3.org/2000/svg" xmlns:xlink="http://www.w3.org/1999/xlink" contentStyleType="text/css" height="605px" preserveAspectRatio="none" style="width:511px;height:605px;background:#FFFFFF;" version="1.1" viewBox="0 0 511 605" width="511px" zoomAndPan="magnify"><defs/><g><g id="EN_CURSO"><rect fill="#F1F1F1" height="50" rx="12.5" ry="12.5" style="stroke:#181818;stroke-width:0.5;" width="92" x="206.5" y="7"/><line style="stroke:#181818;stroke-width:0.5;" x1="206.5" x2="298.5" y1="36.0679" y2="36.0679"/><text fill="#000000" font-family="sans-serif" font-size="14" lengthAdjust="spacing" textLength="72" x="216.5" y="26.9659">EN_CURSO</text></g><path d="M19.5,154 L485.5,154 A12.5,12.5 0 0 1 498,166.5 L498,183.0679 L7,183.0679 L7,166.5 A12.5,12.5 0 0 1 19.5,154 " fill="#F1F1F1" style="stroke:#F1F1F1;stroke-width:1.0;"/><rect fill="none" height="298.0679" rx="12.5" ry="12.5" style="stroke:#181818;stroke-width:0.5;" width="491" x="7" y="154"/><line style="stroke:#181818;stroke-width:0.5;" x1="7" x2="498" y1="183.0679" y2="183.0679"/><text fill="#000000" font-family="sans-serif" font-size="14" lengthAdjust="spacing" textLength="165" x="170" y="173.9659">alternarVelocidadCaida()</text><g id="elem_c1"><polygon fill="#F1F1F1" points="151,287.0679,163,299.0679,151,311.0679,139,299.0679,151,287.0679" style="stroke:#181818;stroke-width:0.5;"/></g><ellipse cx="151" cy="204.0679" fill="#222222" rx="10" ry="10" style="stroke:#222222;stroke-width:1.0;"/><ellipse cx="151" cy="431.0679" fill="none" rx="11" ry="11" style="stroke:#222222;stroke-width:1.0;"/><ellipse cx="151" cy="431.0679" fill="#222222" rx="6" ry="6" style="stroke:#222222;stroke-width:1.0;"/><!--link *start*alternarVelocidadCaida to c1--><g id="link_*start*alternarVelocidadCaida_c1"><path d="M151,214.3279 C151,231.5079 151,262.2679 151,280.8379 " fill="none" id="*start*alternarVelocidadCaida-to-c1" style="stroke:#008000;stroke-width:1.0;"/><polygon fill="#008000" points="151,286.8379,155,277.8379,151,281.8379,147,277.8379,151,286.8379" style="stroke:#008000;stroke-width:1.0;"/><path d="M156,237.0679 L156,264.0679 L434,264.0679 L434,247.0679 L424,237.0679 L156,237.0679 " fill="#FEFFDD" style="stroke:#181818;stroke-width:0.5;"/><path d="M424,237.0679 L424,247.0679 L434,247.0679 L424,237.0679 " fill="#FEFFDD" style="stroke:#181818;stroke-width:0.5;"/><text fill="#000000" font-family="sans-serif" font-size="13" font-weight="bold" lengthAdjust="spacing" textLength="51" x="162" y="255.9649">Jugador</text><text fill="#000000" font-family="sans-serif" font-size="13" lengthAdjust="spacing" textLength="203" x="216" y="255.9649">solicita alternar velocidad de ca&#237;da</text></g><!--link c1 to *end*alternarVelocidadCaida--><g id="link_c1_*end*alternarVelocidadCaida"><path d="M141.86,302.0579 C111.81,308.6179 18,329.0679 18,329.0679 C18,329.0679 18,402.0679 18,402.0679 C18,402.0679 102.4788,419.8516 134.2488,426.5416 " fill="none" id="c1-to-*end*alternarVelocidadCaida" style="stroke:#008000;stroke-width:1.0;"/><polygon fill="#008000" points="140.12,427.7779,132.1374,422.0092,135.2273,426.7476,130.4889,429.8376,140.12,427.7779" style="stroke:#008000;stroke-width:1.0;"/><path d="M23,334.0679 L23,397.0679 L258,397.0679 L258,344.0679 L248,334.0679 L23,334.0679 " fill="#FEFFDD" style="stroke:#181818;stroke-width:0.5;"/><path d="M248,334.0679 L248,344.0679 L258,344.0679 L248,334.0679 " fill="#FEFFDD" style="stroke:#181818;stroke-width:0.5;"/><text fill="#000000" font-family="sans-serif" font-size="13" lengthAdjust="spacing" textLength="141" x="29" y="352.9649">velocidad normal activa</text><text fill="#000000" font-family="sans-serif" font-size="13" font-weight="bold" lengthAdjust="spacing" textLength="52" x="29" y="370.6709">Sistema</text><text fill="#000000" font-family="sans-serif" font-size="13" lengthAdjust="spacing" textLength="125" x="84" y="370.6709">presenta pieza activa</text><text fill="#000000" font-family="sans-serif" font-size="13" lengthAdjust="spacing" textLength="214" x="29" y="388.377">descendiendo a velocidad acelerada</text></g><!--link c1 to *end*alternarVelocidadCaida--><g id="link_c1_*end*alternarVelocidadCaida"><path d="M159.79,302.3479 C186.19,309.1779 263,329.0679 263,329.0679 C263,329.0679 263,402.0679 263,402.0679 C263,402.0679 195.5907,418.9222 167.5607,425.9322 " fill="none" id="c1-to-*end*alternarVelocidadCaida-1" style="stroke:#0000FF;stroke-width:1.0;"/><polygon fill="#0000FF" points="161.74,427.3879,171.4416,429.0849,166.5906,426.1748,169.5006,421.3239,161.74,427.3879" style="stroke:#0000FF;stroke-width:1.0;"/><path d="M268,334.0679 L268,397.0679 L489,397.0679 L489,344.0679 L479,334.0679 L268,334.0679 " fill="#FEFFDD" style="stroke:#181818;stroke-width:0.5;"/><path d="M479,334.0679 L479,344.0679 L489,344.0679 L479,334.0679 " fill="#FEFFDD" style="stroke:#181818;stroke-width:0.5;"/><text fill="#000000" font-family="sans-serif" font-size="13" lengthAdjust="spacing" textLength="155" x="274" y="352.9649">velocidad acelerada activa</text><text fill="#000000" font-family="sans-serif" font-size="13" font-weight="bold" lengthAdjust="spacing" textLength="52" x="274" y="370.6709">Sistema</text><text fill="#000000" font-family="sans-serif" font-size="13" lengthAdjust="spacing" textLength="125" x="329" y="370.6709">presenta pieza activa</text><text fill="#000000" font-family="sans-serif" font-size="13" lengthAdjust="spacing" textLength="200" x="274" y="388.377">descendiendo a velocidad normal</text></g><g id="EN_CURSO_2"><rect fill="#F1F1F1" height="50" rx="12.5" ry="12.5" style="stroke:#181818;stroke-width:0.5;" width="92" x="206.5" y="549"/><line style="stroke:#181818;stroke-width:0.5;" x1="206.5" x2="298.5" y1="578.0679" y2="578.0679"/><text fill="#000000" font-family="sans-serif" font-size="14" lengthAdjust="spacing" textLength="72" x="216.5" y="568.9659">EN_CURSO</text></g><!--link EN_CURSO to alternarVelocidadCaida--><g id="link_EN_CURSO_alternarVelocidadCaida"><path d="M252.5,57.35 C252.5,80.17 252.5,110.34 252.5,147.93 " fill="none" id="EN_CURSO-to-alternarVelocidadCaida" style="stroke:#008000;stroke-width:1.0;"/><polygon fill="#008000" points="252.5,153.93,256.5,144.93,252.5,148.93,248.5,144.93,252.5,153.93" style="stroke:#008000;stroke-width:1.0;"/><path d="M257.5,92 L257.5,119 L424.5,119 L424.5,102 L414.5,92 L257.5,92 " fill="#FEFFDD" style="stroke:#181818;stroke-width:0.5;"/><path d="M414.5,92 L414.5,102 L424.5,102 L414.5,92 " fill="#FEFFDD" style="stroke:#181818;stroke-width:0.5;"/><text fill="#000000" font-family="sans-serif" font-size="13" lengthAdjust="spacing" textLength="146" x="263.5" y="110.897">alternarVelocidadCaida()</text></g><!--link alternarVelocidadCaida to EN_CURSO_2--><g id="link_alternarVelocidadCaida_EN_CURSO_2"><path d="M252.5,452.27 C252.5,489.78 252.5,519.85 252.5,542.64 " fill="none" id="alternarVelocidadCaida-to-EN_CURSO_2" style="stroke:#008000;stroke-width:1.0;"/><polygon fill="#008000" points="252.5,548.64,256.5,539.64,252.5,543.64,248.5,539.64,252.5,548.64" style="stroke:#008000;stroke-width:1.0;"/><path d="M257.5,487 L257.5,514 L395.5,514 L395.5,497 L385.5,487 L257.5,487 " fill="#FEFFDD" style="stroke:#181818;stroke-width:0.5;"/><path d="M385.5,487 L385.5,497 L395.5,497 L385.5,487 " fill="#FEFFDD" style="stroke:#181818;stroke-width:0.5;"/><text fill="#000000" font-family="sans-serif" font-size="13" lengthAdjust="spacing" textLength="117" x="263.5" y="505.897">velocidad alternada</text></g><!--SRC=[hPBFIWCn4CRlUOfXlQXGf9wNlHGl7XGiUYcbp2P36vfDbYGjLF6HV0fVpCak-mzQyU125YQP-RxV91FssjReiGAZBSLJJL0xSqg140zFcyNho_8PPgkhhIUowra1Q29vY_wDZ9DQeLeW_uLraS3P9BCNvtEkRmHP1IbJY12H2yud0WR8Bcbay244yDSgo3dakTmvBQaeseFLxNf2BEVDzeGmRUHbyNZOed8-loiB2CvegIFsK73ih46n4Nv_SP-fSEWYHKmmTcFtytQ3cdM-GWCeepvYXxBK8LA53KhjAP1bb5hJEuuJ5GN9zfgN0nnfeYH37dyXBCs1_WZOY_qlOzlt5F2p6uLks3RtpVDtOIOkJDFaqeVYwI2EMcf5-7vwwny0]--></g></svg>