<svg xmlns="http://www.w3.org/2000/svg" xmlns:xlink="http://www.w3.org/1999/xlink" contentStyleType="text/css" data-diagram-type="STATE" height="860px" preserveAspectRatio="none" style="width:579px;height:860px;background:#FFFFFF;" version="1.1" viewBox="0 0 579 860" width="579px" zoomAndPan="magnify"><defs/><g><path d="M32,152 L478,152 A12.5,12.5 0 0 1 490.5,164.5 L490.5,178.2969 L19.5,178.2969 L19.5,164.5 A12.5,12.5 0 0 1 32,152" fill="#F1F1F1"/><rect fill="none" height="557.2969" rx="12.5" ry="12.5" style="stroke:#181818;stroke-width:0.5;" width="471" x="19.5" y="152"/><line style="stroke:#181818;stroke-width:0.5;" x1="19.5" x2="490.5" y1="178.2969" y2="178.2969"/><text fill="#000000" font-family="sans-serif" font-size="14" lengthAdjust="spacing" textLength="120.2305" x="194.8848" y="169.9951">cancelarPartida()</text><g id="cancelarPartida.SolicitandoCancelaci&#243;n"><rect fill="#F1F1F1" height="50" rx="12.5" ry="12.5" style="stroke:#181818;stroke-width:0.5;" width="50" x="141.5" y="280.2969"/><line style="stroke:#181818;stroke-width:0.5;" x1="141.5" x2="191.5" y1="306.5938" y2="306.5938"/><text fill="#000000" font-family="sans-serif" font-size="14" lengthAdjust="spacing" textLength="4.4502" x="164.2749" y="298.292">&#160;</text></g><g id="cancelarPartida.ConfirmandoCancelaci&#243;n"><rect fill="#F1F1F1" height="50" rx="12.5" ry="12.5" style="stroke:#181818;stroke-width:0.5;" width="50" x="141.5" y="446.2969"/><line style="stroke:#181818;stroke-width:0.5;" x1="141.5" x2="191.5" y1="472.5938" y2="472.5938"/><text fill="#000000" font-family="sans-serif" font-size="14" lengthAdjust="spacing" textLength="4.4502" x="164.2749" y="464.292">&#160;</text></g><g class="entity" data-entity="c1" data-uid="ent0005" id="entity_c1"><polygon fill="#F1F1F1" points="166.5,567.2969,178.5,579.2969,166.5,591.2969,154.5,579.2969,166.5,567.2969" style="stroke:#181818;stroke-width:0.5;"/></g><ellipse cx="166.5" cy="199.2969" fill="#222222" rx="10" ry="10" style="stroke:#222222;stroke-width:1;"/><ellipse cx="166.5" cy="688.2969" fill="none" rx="11" ry="11" style="stroke:#222222;stroke-width:1;"/><ellipse cx="166.5" cy="688.2969" fill="#222222" rx="6" ry="6" style="stroke:#222222;stroke-width:1;"/><!--link *start*cancelarPartida to SolicitandoCancelaci?n--><g class="link" data-entity-1="*start*cancelarPartida" data-entity-2="SolicitandoCancelaci&#243;n" data-source-line="19" data-uid="lnk7" id="link_*start*cancelarPartida_SolicitandoCancelaci&#243;n"><path d="M166.5,209.5269 C166.5,225.2369 166.5,251.6569 166.5,274.1669" fill="none" id="*start*cancelarPartida-to-SolicitandoCancelaci&#243;n" style="stroke:#008000;stroke-width:1;"/><polygon fill="#008000" points="166.5,280.1669,170.5,271.1669,166.5,275.1669,162.5,271.1669,166.5,280.1669" style="stroke:#008000;stroke-width:1;"/><path d="M171.5,232.2969 L171.5,257.2969 L408.5,257.2969 L408.5,242.2969 L398.5,232.2969 L171.5,232.2969" fill="#FEFFDD" style="stroke:#181818;stroke-width:0.5;"/><path d="M398.5,232.2969 L398.5,242.2969 L408.5,242.2969 L398.5,232.2969" fill="#FEFFDD" style="stroke:#181818;stroke-width:0.5;"/><text fill="#000000" font-family="sans-serif" font-size="13" font-weight="bold" lengthAdjust="spacing" textLength="56.8179" x="177.5" y="249.3638">Jugador</text><text fill="#000000" font-family="sans-serif" font-size="13" lengthAdjust="spacing" textLength="155.9492" x="238.4502" y="249.3638">solicita cancelar partida</text></g><!--link SolicitandoCancelaci?n to ConfirmandoCancelaci?n--><g class="link" data-entity-1="SolicitandoCancelaci&#243;n" data-entity-2="ConfirmandoCancelaci&#243;n" data-source-line="24" data-uid="lnk8" id="link_SolicitandoCancelaci&#243;n_ConfirmandoCancelaci&#243;n"><path d="M166.5,330.4969 C166.5,361.5869 166.5,409.2469 166.5,440.2669" fill="none" id="SolicitandoCancelaci&#243;n-to-ConfirmandoCancelaci&#243;n" style="stroke:#008000;stroke-width:1;"/><polygon fill="#008000" points="166.5,446.2669,170.5,437.2669,166.5,441.2669,162.5,437.2669,166.5,446.2669" style="stroke:#008000;stroke-width:1;"/><path d="M171.5,353.2969 L171.5,423.2969 L481.5,423.2969 L481.5,363.2969 L471.5,353.2969 L171.5,353.2969" fill="#FEFFDD" style="stroke:#181818;stroke-width:0.5;"/><path d="M471.5,353.2969 L471.5,363.2969 L481.5,363.2969 L471.5,353.2969" fill="#FEFFDD" style="stroke:#181818;stroke-width:0.5;"/><text fill="#000000" font-family="sans-serif" font-size="13" font-weight="bold" lengthAdjust="spacing" textLength="58.9063" x="177.5" y="370.3638">Sistema</text><text fill="#000000" font-family="sans-serif" font-size="13" lengthAdjust="spacing" textLength="226.021" x="240.5386" y="370.3638">presenta mensaje de confirmaci&#243;n</text><text fill="#000000" font-family="sans-serif" font-size="13" font-weight="bold" lengthAdjust="spacing" textLength="58.9063" x="177.5" y="385.4966">Sistema</text><text fill="#000000" font-family="sans-serif" font-size="13" lengthAdjust="spacing" textLength="110.5952" x="240.5386" y="385.4966">permite solicitar:</text><text fill="#000000" font-family="sans-serif" font-size="13" lengthAdjust="spacing" textLength="117.8442" x="177.5" y="400.6294">&#8226; cancelar partida</text><text fill="#000000" font-family="sans-serif" font-size="13" lengthAdjust="spacing" textLength="121.7734" x="177.5" y="415.7622">&#8226; reanudar partida</text></g><!--link ConfirmandoCancelaci?n to c1--><g class="link" data-entity-1="ConfirmandoCancelaci&#243;n" data-entity-2="c1" data-source-line="32" data-uid="lnk9" id="link_ConfirmandoCancelaci&#243;n_c1"><path d="M166.5,496.3469 C166.5,518.5869 166.5,544.6269 166.5,561.2869" fill="none" id="ConfirmandoCancelaci&#243;n-to-c1" style="stroke:#008000;stroke-width:1;"/><polygon fill="#008000" points="166.5,567.2869,170.5,558.2869,166.5,562.2869,162.5,558.2869,166.5,567.2869" style="stroke:#008000;stroke-width:1;"/><path d="M171.5,519.2969 L171.5,544.2969 L414.5,544.2969 L414.5,529.2969 L404.5,519.2969 L171.5,519.2969" fill="#FEFFDD" style="stroke:#181818;stroke-width:0.5;"/><path d="M404.5,519.2969 L404.5,529.2969 L414.5,529.2969 L404.5,519.2969" fill="#FEFFDD" style="stroke:#181818;stroke-width:0.5;"/><text fill="#000000" font-family="sans-serif" font-size="13" font-weight="bold" lengthAdjust="spacing" textLength="56.8179" x="177.5" y="536.3638">Jugador</text><text fill="#000000" font-family="sans-serif" font-size="13" lengthAdjust="spacing" textLength="161.4971" x="238.4502" y="536.3638">responde a confirmaci&#243;n</text></g><!--link c1 to *end*cancelarPartida--><g class="link" data-entity-1="c1" data-entity-2="*end*cancelarPartida" data-source-line="37" data-uid="lnk11" id="link_c1_*end*cancelarPartida"><path d="M157.15,582.2869 C126.43,588.8469 30.5,609.2969 30.5,609.2969 C30.5,609.2969 30.5,659.2969 30.5,659.2969 C30.5,659.2969 117.8932,677.2871 149.9532,683.8871" fill="none" id="c1-to-*end*cancelarPartida" style="stroke:#008000;stroke-width:1;"/><polygon fill="#008000" points="155.83,685.0969,147.8214,679.3643,150.9327,684.0887,146.2083,687.2,155.83,685.0969" style="stroke:#008000;stroke-width:1;"/><path d="M35.5,614.2969 L35.5,654.2969 L277.5,654.2969 L277.5,624.2969 L267.5,614.2969 L35.5,614.2969" fill="#FEFFDD" style="stroke:#181818;stroke-width:0.5;"/><path d="M267.5,614.2969 L267.5,624.2969 L277.5,624.2969 L267.5,614.2969" fill="#FEFFDD" style="stroke:#181818;stroke-width:0.5;"/><text fill="#000000" font-family="sans-serif" font-size="13" lengthAdjust="spacing" textLength="149.2334" x="41.5" y="631.3638">confirmaci&#243;n aceptada</text><text fill="#000000" font-family="sans-serif" font-size="13" font-weight="bold" lengthAdjust="spacing" textLength="58.9063" x="41.5" y="646.4966">Sistema</text><text fill="#000000" font-family="sans-serif" font-size="13" lengthAdjust="spacing" textLength="158.8945" x="104.5386" y="646.4966">limpia estado de partida</text></g><!--link c1 to *end*cancelarPartida--><g class="link" data-entity-1="c1" data-entity-2="*end*cancelarPartida" data-source-line="43" data-uid="lnk12" id="link_c1_*end*cancelarPartida"><path d="M175.6,582.5769 C202.95,589.4069 282.5,609.2969 282.5,609.2969 C282.5,609.2969 282.5,659.2969 282.5,659.2969 C282.5,659.2969 211.752,676.3671 183.042,683.3071" fill="none" id="c1-to-*end*cancelarPartida-1" style="stroke:#0000FF;stroke-width:1;"/><polygon fill="#0000FF" points="177.21,684.7169,186.8979,686.4903,182.07,683.5421,185.0182,678.7142,177.21,684.7169" style="stroke:#0000FF;stroke-width:1;"/><path d="M287.5,621.7969 L287.5,646.7969 L462.5,646.7969 L462.5,631.7969 L452.5,621.7969 L287.5,621.7969" fill="#FEFFDD" style="stroke:#181818;stroke-width:0.5;"/><path d="M452.5,621.7969 L452.5,631.7969 L462.5,631.7969 L452.5,621.7969" fill="#FEFFDD" style="stroke:#181818;stroke-width:0.5;"/><text fill="#000000" font-family="sans-serif" font-size="13" lengthAdjust="spacing" textLength="154.8828" x="293.5" y="638.8638">confirmaci&#243;n cancelada</text></g><g id="EN_CURSO_2"><rect fill="#F1F1F1" height="50" rx="12.5" ry="12.5" style="stroke:#181818;stroke-width:0.5;" width="95.9746" x="7" y="804"/><line style="stroke:#181818;stroke-width:0.5;" x1="7" x2="102.9746" y1="830.2969" y2="830.2969"/><text fill="#000000" font-family="sans-serif" font-size="14" lengthAdjust="spacing" textLength="75.9746" x="17" y="821.9951">EN_CURSO</text></g><g id="FINALIZADO_2"><rect fill="#F1F1F1" height="50" rx="12.5" ry="12.5" style="stroke:#181818;stroke-width:0.5;" width="105.1279" x="202.5" y="804"/><line style="stroke:#181818;stroke-width:0.5;" x1="202.5" x2="307.6279" y1="830.2969" y2="830.2969"/><text fill="#000000" font-family="sans-serif" font-size="14" lengthAdjust="spacing" textLength="85.1279" x="212.5" y="821.9951">FINALIZADO</text></g><g id="EN_CURSO"><rect fill="#F1F1F1" height="50" rx="12.5" ry="12.5" style="stroke:#181818;stroke-width:0.5;" width="95.9746" x="116" y="7"/><line style="stroke:#181818;stroke-width:0.5;" x1="116" x2="211.9746" y1="33.2969" y2="33.2969"/><text fill="#000000" font-family="sans-serif" font-size="14" lengthAdjust="spacing" textLength="75.9746" x="126" y="24.9951">EN_CURSO</text></g><g id="FINALIZADO"><rect fill="#F1F1F1" height="50" rx="12.5" ry="12.5" style="stroke:#181818;stroke-width:0.5;" width="105.1279" x="293.5" y="7"/><line style="stroke:#181818;stroke-width:0.5;" x1="293.5" x2="398.6279" y1="33.2969" y2="33.2969"/><text fill="#000000" font-family="sans-serif" font-size="14" lengthAdjust="spacing" textLength="85.1279" x="303.5" y="24.9951">FINALIZADO</text></g><g id="INACTIVO"><rect fill="#F1F1F1" height="50" rx="12.5" ry="12.5" style="stroke:#181818;stroke-width:0.5;" width="87.2314" x="411.5" y="804"/><line style="stroke:#181818;stroke-width:0.5;" x1="411.5" x2="498.7314" y1="830.2969" y2="830.2969"/><text fill="#000000" font-family="sans-serif" font-size="14" lengthAdjust="spacing" textLength="67.2314" x="421.5" y="821.9951">INACTIVO</text></g><!--link EN_CURSO to cancelarPartida--><g class="link" data-entity-1="EN_CURSO" data-entity-2="cancelarPartida" data-source-line="3" data-uid="lnk3" id="link_EN_CURSO_cancelarPartida"><path d="M162.66,57.16 C161.86,71.53 161,87 161,87 C161,87 161,122 161,122 C161,122 162.7256,127.6422 168.3456,146.0222" fill="none" id="EN_CURSO-to-cancelarPartida" style="stroke:#0000FF;stroke-width:1;"/><polygon fill="#0000FF" points="170.1,151.76,171.2935,141.9837,168.638,146.9785,163.6432,144.323,170.1,151.76" style="stroke:#0000FF;stroke-width:1;"/><path d="M166,92 L166,117 L298,117 L298,102 L288,92 L166,92" fill="#FEFFDD" style="stroke:#181818;stroke-width:0.5;"/><path d="M288,92 L288,102 L298,102 L288,92" fill="#FEFFDD" style="stroke:#181818;stroke-width:0.5;"/><text fill="#000000" font-family="sans-serif" font-size="13" lengthAdjust="spacing" textLength="111.6426" x="172" y="109.0669">cancelarPartida()</text></g><!--link FINALIZADO to cancelarPartida--><g class="link" data-entity-1="FINALIZADO" data-entity-2="cancelarPartida" data-source-line="8" data-uid="lnk5" id="link_FINALIZADO_cancelarPartida"><path d="M340.44,57.21 C335.51,78.73 329.0429,106.9122 320.1029,145.8422" fill="none" id="FINALIZADO-to-cancelarPartida" style="stroke:#008000;stroke-width:1;"/><polygon fill="#008000" points="318.76,151.69,324.6729,143.8136,319.8791,146.8168,316.8758,142.0231,318.76,151.69" style="stroke:#008000;stroke-width:1;"/><path d="M337,92 L337,117 L469,117 L469,102 L459,92 L337,92" fill="#FEFFDD" style="stroke:#181818;stroke-width:0.5;"/><path d="M459,92 L459,102 L469,102 L459,92" fill="#FEFFDD" style="stroke:#181818;stroke-width:0.5;"/><text fill="#000000" font-family="sans-serif" font-size="13" lengthAdjust="spacing" textLength="111.6426" x="343" y="109.0669">cancelarPartida()</text></g><!--link cancelarPartida to INACTIVO--><g class="link" data-entity-1="cancelarPartida" data-entity-2="INACTIVO" data-source-line="52" data-uid="lnk14" id="link_cancelarPartida_INACTIVO"><path d="M400.42,709.24 C410.04,727.62 416,739 416,739 C416,739 430.393,771.834 441.933,798.184" fill="none" id="cancelarPartida-to-INACTIVO" style="stroke:#008000;stroke-width:1;"/><polygon fill="#008000" points="444.34,803.68,444.3935,793.8313,442.3342,799.1,437.0655,797.0406,444.34,803.68" style="stroke:#008000;stroke-width:1;"/><path d="M435,744 L435,769 L572,769 L572,754 L562,744 L435,744" fill="#FEFFDD" style="stroke:#181818;stroke-width:0.5;"/><path d="M562,744 L562,754 L572,754 L562,744" fill="#FEFFDD" style="stroke:#181818;stroke-width:0.5;"/><text fill="#000000" font-family="sans-serif" font-size="13" lengthAdjust="spacing" textLength="116.9175" x="441" y="761.0669">partida cancelada</text></g><!--link cancelarPartida to EN_CURSO_2--><g class="link" data-entity-1="cancelarPartida" data-entity-2="EN_CURSO_2" data-source-line="57" data-uid="lnk15" id="link_cancelarPartida_EN_CURSO_2"><path d="M100.55,709.24 C90.33,727.62 84,739 84,739 C84,739 73.3697,771.6255 64.7797,797.9755" fill="none" id="cancelarPartida-to-EN_CURSO_2" style="stroke:#0000FF;stroke-width:1;"/><polygon fill="#0000FF" points="62.92,803.68,69.5125,796.363,64.4697,798.9262,61.9065,793.8834,62.92,803.68" style="stroke:#0000FF;stroke-width:1;"/><path d="M89,744 L89,769 L239,769 L239,754 L229,744 L89,744" fill="#FEFFDD" style="stroke:#181818;stroke-width:0.5;"/><path d="M229,744 L229,754 L239,754 L229,744" fill="#FEFFDD" style="stroke:#181818;stroke-width:0.5;"/><text fill="#000000" font-family="sans-serif" font-size="13" lengthAdjust="spacing" textLength="129.0732" x="95" y="761.0669">reanudando partida</text></g><!--link cancelarPartida to FINALIZADO_2--><g class="link" data-entity-1="cancelarPartida" data-entity-2="FINALIZADO_2" data-source-line="62" data-uid="lnk16" id="link_cancelarPartida_FINALIZADO_2"><path d="M252.29,709.24 C252.11,727.62 252,739 252,739 C252,739 252,774 252,774 C252,774 252.5265,783.4793 253.3265,797.8493" fill="none" id="cancelarPartida-to-FINALIZADO_2" style="stroke:#0000FF;stroke-width:1;"/><polygon fill="#0000FF" points="253.66,803.84,257.1535,794.6316,253.3821,798.8477,249.1659,795.0763,253.66,803.84" style="stroke:#0000FF;stroke-width:1;"/><path d="M257,744 L257,769 L407,769 L407,754 L397,744 L257,744" fill="#FEFFDD" style="stroke:#181818;stroke-width:0.5;"/><path d="M397,744 L397,754 L407,754 L397,744" fill="#FEFFDD" style="stroke:#181818;stroke-width:0.5;"/><text fill="#000000" font-family="sans-serif" font-size="13" lengthAdjust="spacing" textLength="129.0732" x="263" y="761.0669">reanudando partida</text></g><!--SRC=[fPFHIiCm58RlynIXtgWmP5vAAOogC95Dd7hX6EEiFSwuDYbfTp54y5by1H_1D_59JDfqNRgk56olalpdF-SxoKbNZ2SW8QOHuvXj4gI9Y3PwGSZLQEu_ta_6j3SzMaHhdFKy6W0FC09v1p9Z8H0kCgI2w_0LgHqUdn3a8TKIGgw7ey7jy7bmcTij9IB_br-QWLBM51HIwkn5EVIT4Ag-8iPHlz9DHCG2bW4FXLz41Epdc-yBVS5Vc8nRX46VkcxmAbY0dbUacfxEBCwsR1Qptd0Ntirw2Q6Gxjd2ewc9tTBIn7HBYwkMwDM1F5OjRK1DjKnOcc4CUIs9n1IvgYL6di8Rqb3X6x_AfHw4CcRAjmIH5xdgz_Eh6KaVI0I-3bjP3t3OxwlVgSMAAX5SiK03ZPrLNVPk0dNHpHai7me19XaOZ5fx8XOd32YgnnGAtT33o4NoSXWxvZOzhXj-b4DKpldyF9-VSkcOusfoZQ3QS4XzHgtUA9t_C7mQsrDjw7RAgXWRt4hOgahRpZmKzGYsVUlajulLsV4F]--></g></svg>