<?xml version="1.0" encoding="us-ascii" standalone="no"?><svg xmlns="http://www.w3.org/2000/svg" xmlns:xlink="http://www.w3.org/1999/xlink" contentStyleType="text/css" height="1212px" preserveAspectRatio="none" style="width:813px;height:1212px;background:#FFFFFF;" version="1.1" viewBox="0 0 813 1212" width="813px" zoomAndPan="magnify"><defs/><g><g id="EN_CURSO"><rect fill="#F1F1F1" height="50" rx="12.5" ry="12.5" style="stroke:#181818;stroke-width:0.5;" width="92" x="357.5" y="7"/><line style="stroke:#181818;stroke-width:0.5;" x1="357.5" x2="449.5" y1="36.0679" y2="36.0679"/><text fill="#000000" font-family="sans-serif" font-size="14" lengthAdjust="spacing" textLength="72" x="367.5" y="26.9659">EN_CURSO</text></g><path d="M19.5,154 L787.5,154 A12.5,12.5 0 0 1 800,166.5 L800,183.0679 L7,183.0679 L7,166.5 A12.5,12.5 0 0 1 19.5,154 " fill="#F1F1F1" style="stroke:#F1F1F1;stroke-width:1.0;"/><rect fill="none" height="905.0679" rx="12.5" ry="12.5" style="stroke:#181818;stroke-width:0.5;" width="793" x="7" y="154"/><line style="stroke:#181818;stroke-width:0.5;" x1="7" x2="800" y1="183.0679" y2="183.0679"/><text fill="#000000" font-family="sans-serif" font-size="14" lengthAdjust="spacing" textLength="114" x="346.5" y="173.9659">descenderPieza()</text><g id="descenderPieza.DescendiendoPieza"><rect fill="#F1F1F1" height="50" rx="12.5" ry="12.5" style="stroke:#181818;stroke-width:0.5;" width="50" x="449" y="287.0679"/><line style="stroke:#181818;stroke-width:0.5;" x1="449" x2="499" y1="316.1358" y2="316.1358"/><text fill="#000000" font-family="sans-serif" font-size="14" lengthAdjust="spacing" textLength="4" x="472" y="307.0339">&#160;</text></g><g id="descenderPieza.FijandoPieza"><rect fill="#F1F1F1" height="50" rx="12.5" ry="12.5" style="stroke:#181818;stroke-width:0.5;" width="50" x="336" y="543.0679"/><line style="stroke:#181818;stroke-width:0.5;" x1="336" x2="386" y1="572.1358" y2="572.1358"/><text fill="#000000" font-family="sans-serif" font-size="14" lengthAdjust="spacing" textLength="4" x="359" y="563.0339">&#160;</text></g><g id="descenderPieza.EliminandoLineas"><rect fill="#F1F1F1" height="50" rx="12.5" ry="12.5" style="stroke:#181818;stroke-width:0.5;" width="50" x="260" y="684.0679"/><line style="stroke:#181818;stroke-width:0.5;" x1="260" x2="310" y1="713.1358" y2="713.1358"/><text fill="#000000" font-family="sans-serif" font-size="14" lengthAdjust="spacing" textLength="4" x="283" y="704.0339">&#160;</text></g><g id="descenderPieza.GenerandoNuevaPieza"><rect fill="#F1F1F1" height="50" rx="12.5" ry="12.5" style="stroke:#181818;stroke-width:0.5;" width="50" x="231" y="825.0679"/><line style="stroke:#181818;stroke-width:0.5;" x1="231" x2="281" y1="854.1358" y2="854.1358"/><text fill="#000000" font-family="sans-serif" font-size="14" lengthAdjust="spacing" textLength="4" x="254" y="845.0339">&#160;</text></g><g id="elem_c1"><polygon fill="#F1F1F1" points="474,410.0679,486,422.0679,474,434.0679,462,422.0679,474,410.0679" style="stroke:#181818;stroke-width:0.5;"/></g><g id="elem_c2"><polygon fill="#F1F1F1" points="256,912.0679,268,924.0679,256,936.0679,244,924.0679,256,912.0679" style="stroke:#181818;stroke-width:0.5;"/></g><ellipse cx="474" cy="204.0679" fill="#222222" rx="10" ry="10" style="stroke:#222222;stroke-width:1.0;"/><ellipse cx="291" cy="1038.0679" fill="none" rx="11" ry="11" style="stroke:#222222;stroke-width:1.0;"/><ellipse cx="291" cy="1038.0679" fill="#222222" rx="6" ry="6" style="stroke:#222222;stroke-width:1.0;"/><!--link *start*descenderPieza to DescendiendoPieza--><g id="link_*start*descenderPieza_DescendiendoPieza"><path d="M474,214.1079 C474,230.0279 474,257.5779 474,280.7079 " fill="none" id="*start*descenderPieza-to-DescendiendoPieza" style="stroke:#008000;stroke-width:1.0;"/><polygon fill="#008000" points="474,286.7079,478,277.7079,474,281.7079,470,277.7079,474,286.7079" style="stroke:#008000;stroke-width:1.0;"/><path d="M479,237.0679 L479,264.0679 L724,264.0679 L724,247.0679 L714,237.0679 L479,237.0679 " fill="#FEFFDD" style="stroke:#181818;stroke-width:0.5;"/><path d="M714,237.0679 L714,247.0679 L724,247.0679 L714,237.0679 " fill="#FEFFDD" style="stroke:#181818;stroke-width:0.5;"/><text fill="#000000" font-family="sans-serif" font-size="13" font-weight="bold" lengthAdjust="spacing" textLength="49" x="485" y="255.9649">Tiempo</text><text fill="#000000" font-family="sans-serif" font-size="13" lengthAdjust="spacing" textLength="172" x="537" y="255.9649">solicita descenso autom&#225;tico</text></g><!--link DescendiendoPieza to c1--><g id="link_DescendiendoPieza_c1"><path d="M474,337.3079 C474,359.9379 474,386.7279 474,403.7879 " fill="none" id="DescendiendoPieza-to-c1" style="stroke:#008000;stroke-width:1.0;"/><polygon fill="#008000" points="474,409.7879,478,400.7879,474,404.7879,470,400.7879,474,409.7879" style="stroke:#008000;stroke-width:1.0;"/><path d="M479,360.0679 L479,387.0679 L791,387.0679 L791,370.0679 L781,360.0679 L479,360.0679 " fill="#FEFFDD" style="stroke:#181818;stroke-width:0.5;"/><path d="M781,360.0679 L781,370.0679 L791,370.0679 L781,360.0679 " fill="#FEFFDD" style="stroke:#181818;stroke-width:0.5;"/><text fill="#000000" font-family="sans-serif" font-size="13" font-weight="bold" lengthAdjust="spacing" textLength="52" x="485" y="378.9649">Sistema</text><text fill="#000000" font-family="sans-serif" font-size="13" lengthAdjust="spacing" textLength="236" x="540" y="378.9649">presenta pieza activa en nueva posici&#243;n</text></g><!--link c1 to FijandoPieza--><g id="link_c1_FijandoPieza"><path d="M467.9,428.1179 C457.88,436.4279 439,452.0679 439,452.0679 C439,452.0679 403.5879,504.2723 380.7179,537.9923 " fill="none" id="c1-to-FijandoPieza" style="stroke:#008000;stroke-width:1.0;"/><polygon fill="#008000" points="377.35,542.9579,385.7122,537.7547,380.1565,538.8199,379.0914,533.2642,377.35,542.9579" style="stroke:#008000;stroke-width:1.0;"/><path d="M444,457.0679 L444,520.0679 L567,520.0679 L567,467.0679 L557,457.0679 L444,457.0679 " fill="#FEFFDD" style="stroke:#181818;stroke-width:0.5;"/><path d="M557,457.0679 L557,467.0679 L567,467.0679 L557,457.0679 " fill="#FEFFDD" style="stroke:#181818;stroke-width:0.5;"/><text fill="#000000" font-family="sans-serif" font-size="13" lengthAdjust="spacing" textLength="102" x="450" y="475.9649">pieza en posici&#243;n</text><text fill="#000000" font-family="sans-serif" font-size="13" lengthAdjust="spacing" textLength="102" x="450" y="493.6709">de fondo o sobre</text><text fill="#000000" font-family="sans-serif" font-size="13" lengthAdjust="spacing" textLength="78" x="450" y="511.377">piezas fijadas</text></g><!--link c1 to *end*descenderPieza--><g id="link_c1_*end*descenderPieza"><path d="M482.7,425.6379 C506.68,432.7379 572,452.0679 572,452.0679 C572,452.0679 586,567.0679 586,567.0679 C586,567.0679 586,567.0679 586,925.0679 C586,925.0679 568,1009.0679 568,1009.0679 C568,1009.0679 359.0397,1030.1952 307.8297,1035.3652 " fill="none" id="c1-to-*end*descenderPieza" style="stroke:#008000;stroke-width:1.0;"/><polygon fill="#008000" points="301.86,1035.9679,311.2163,1039.0437,306.8347,1035.4657,310.4127,1031.0841,301.86,1035.9679" style="stroke:#008000;stroke-width:1.0;"/><path d="M591,757.0679 L591,802.0679 L714,802.0679 L714,767.0679 L704,757.0679 L591,757.0679 " fill="#FEFFDD" style="stroke:#181818;stroke-width:0.5;"/><path d="M704,757.0679 L704,767.0679 L714,767.0679 L704,757.0679 " fill="#FEFFDD" style="stroke:#181818;stroke-width:0.5;"/><text fill="#000000" font-family="sans-serif" font-size="13" lengthAdjust="spacing" textLength="102" x="597" y="775.9649">pieza en posici&#243;n</text><text fill="#000000" font-family="sans-serif" font-size="13" lengthAdjust="spacing" textLength="65" x="597" y="793.6709">intermedia</text></g><!--link FijandoPieza to EliminandoLineas--><g id="link_FijandoPieza_EliminandoLineas"><path d="M335.87,592.5279 C325.56,602.1479 316,611.0679 316,611.0679 C316,611.0679 303.838,649.1432 294.648,677.8732 " fill="none" id="FijandoPieza-to-EliminandoLineas" style="stroke:#008000;stroke-width:1.0;"/><polygon fill="#008000" points="292.82,683.5879,299.3718,676.2345,294.3433,678.8256,291.7522,673.7971,292.82,683.5879" style="stroke:#008000;stroke-width:1.0;"/><path d="M321,616.0679 L321,661.0679 L567,661.0679 L567,626.0679 L557,616.0679 L321,616.0679 " fill="#FEFFDD" style="stroke:#181818;stroke-width:0.5;"/><path d="M557,616.0679 L557,626.0679 L567,626.0679 L557,616.0679 " fill="#FEFFDD" style="stroke:#181818;stroke-width:0.5;"/><text fill="#000000" font-family="sans-serif" font-size="13" font-weight="bold" lengthAdjust="spacing" textLength="52" x="327" y="634.9649">Sistema</text><text fill="#000000" font-family="sans-serif" font-size="13" lengthAdjust="spacing" textLength="170" x="382" y="634.9649">presenta tablero actualizado</text><text fill="#000000" font-family="sans-serif" font-size="13" lengthAdjust="spacing" textLength="91" x="327" y="652.6709">con pieza fijada</text></g><!--link EliminandoLineas to GenerandoNuevaPieza--><g id="link_EliminandoLineas_GenerandoNuevaPieza"><path d="M268.71,734.4979 C262.55,743.7379 257,752.0679 257,752.0679 C257,752.0679 256.6126,789.8582 256.3126,818.5882 " fill="none" id="EliminandoLineas-to-GenerandoNuevaPieza" style="stroke:#008000;stroke-width:1.0;"/><polygon fill="#008000" points="256.25,824.5879,260.3438,815.6302,256.3022,819.5882,252.3442,815.5466,256.25,824.5879" style="stroke:#008000;stroke-width:1.0;"/><path d="M262,757.0679 L262,802.0679 L559,802.0679 L559,767.0679 L549,757.0679 L262,757.0679 " fill="#FEFFDD" style="stroke:#181818;stroke-width:0.5;"/><path d="M549,757.0679 L549,767.0679 L559,767.0679 L549,757.0679 " fill="#FEFFDD" style="stroke:#181818;stroke-width:0.5;"/><text fill="#000000" font-family="sans-serif" font-size="13" font-weight="bold" lengthAdjust="spacing" textLength="52" x="268" y="775.9649">Sistema</text><text fill="#000000" font-family="sans-serif" font-size="13" lengthAdjust="spacing" textLength="221" x="323" y="775.9649">presenta tablero sin l&#237;neas completas</text><text fill="#000000" font-family="sans-serif" font-size="13" font-weight="bold" lengthAdjust="spacing" textLength="52" x="268" y="793.6709">Sistema</text><text fill="#000000" font-family="sans-serif" font-size="13" lengthAdjust="spacing" textLength="195" x="323" y="793.6709">presenta puntuaci&#243;n actualizada</text></g><!--link GenerandoNuevaPieza to c2--><g id="link_GenerandoNuevaPieza_c2"><path d="M256,875.4479 C256,887.8479 256,896.3079 256,906.0179 " fill="none" id="GenerandoNuevaPieza-to-c2" style="stroke:#008000;stroke-width:1.0;"/><polygon fill="#008000" points="256,912.0179,260,903.0179,256,907.0179,252,903.0179,256,912.0179" style="stroke:#008000;stroke-width:1.0;"/></g><!--link c2 to *end*descenderPieza--><g id="link_c2_*end*descenderPieza"><path d="M246.08,926.2779 C201.03,931.7679 18,954.0679 18,954.0679 C18,954.0679 18,1009.0679 18,1009.0679 C18,1009.0679 222.9213,1030.0855 273.9913,1035.3255 " fill="none" id="c2-to-*end*descenderPieza" style="stroke:#008000;stroke-width:1.0;"/><polygon fill="#008000" points="279.96,1035.9379,271.4153,1031.0402,274.9861,1035.4276,270.5987,1038.9984,279.96,1035.9379" style="stroke:#008000;stroke-width:1.0;"/><path d="M23,959.0679 L23,1004.0679 L264,1004.0679 L264,969.0679 L254,959.0679 L23,959.0679 " fill="#FEFFDD" style="stroke:#181818;stroke-width:0.5;"/><path d="M254,959.0679 L254,969.0679 L264,969.0679 L254,959.0679 " fill="#FEFFDD" style="stroke:#181818;stroke-width:0.5;"/><text fill="#000000" font-family="sans-serif" font-size="13" lengthAdjust="spacing" textLength="135" x="29" y="977.9649">hay espacio disponible</text><text fill="#000000" font-family="sans-serif" font-size="13" font-weight="bold" lengthAdjust="spacing" textLength="52" x="29" y="995.6709">Sistema</text><text fill="#000000" font-family="sans-serif" font-size="13" lengthAdjust="spacing" textLength="165" x="84" y="995.6709">presenta nueva pieza activa</text></g><!--link c2 to *end*descenderPieza--><g id="link_c2_*end*descenderPieza"><path d="M259.42,932.6879 C263.27,941.2779 269,954.0679 269,954.0679 C269,954.0679 281.0217,999.4385 286.8517,1021.4185 " fill="none" id="c2-to-*end*descenderPieza-1" style="stroke:#FF0000;stroke-width:1.0;"/><polygon fill="#FF0000" points="288.39,1027.2179,289.9489,1017.4932,287.1081,1022.385,282.2163,1019.5442,288.39,1027.2179" style="stroke:#FF0000;stroke-width:1.0;"/><path d="M289,959.0679 L289,1004.0679 L559,1004.0679 L559,969.0679 L549,959.0679 L289,959.0679 " fill="#FEFFDD" style="stroke:#181818;stroke-width:0.5;"/><path d="M549,959.0679 L549,969.0679 L559,969.0679 L549,959.0679 " fill="#FEFFDD" style="stroke:#181818;stroke-width:0.5;"/><text fill="#000000" font-family="sans-serif" font-size="13" lengthAdjust="spacing" textLength="154" x="295" y="977.9649">no hay espacio disponible</text><text fill="#000000" font-family="sans-serif" font-size="13" font-weight="bold" lengthAdjust="spacing" textLength="52" x="295" y="995.6709">Sistema</text><text fill="#000000" font-family="sans-serif" font-size="13" lengthAdjust="spacing" textLength="194" x="350" y="995.6709">presenta mensaje de Game Over</text></g><g id="EN_CURSO_2"><rect fill="#F1F1F1" height="50" rx="12.5" ry="12.5" style="stroke:#181818;stroke-width:0.5;" width="92" x="270.5" y="1156"/><line style="stroke:#181818;stroke-width:0.5;" x1="270.5" x2="362.5" y1="1185.0679" y2="1185.0679"/><text fill="#000000" font-family="sans-serif" font-size="14" lengthAdjust="spacing" textLength="72" x="280.5" y="1175.9659">EN_CURSO</text></g><g id="FINALIZADO"><rect fill="#F1F1F1" height="50" rx="12.5" ry="12.5" style="stroke:#181818;stroke-width:0.5;" width="102" x="440.5" y="1156"/><line style="stroke:#181818;stroke-width:0.5;" x1="440.5" x2="542.5" y1="1185.0679" y2="1185.0679"/><text fill="#000000" font-family="sans-serif" font-size="14" lengthAdjust="spacing" textLength="82" x="450.5" y="1175.9659">FINALIZADO</text></g><!--link EN_CURSO to descenderPieza--><g id="link_EN_CURSO_descenderPieza"><path d="M403.5,57.23 C403.5,78.62 403.5,106.74 403.5,147.76 " fill="none" id="EN_CURSO-to-descenderPieza" style="stroke:#008000;stroke-width:1.0;"/><polygon fill="#008000" points="403.5,153.76,407.5,144.76,403.5,148.76,399.5,144.76,403.5,153.76" style="stroke:#008000;stroke-width:1.0;"/><path d="M408.5,92 L408.5,119 L530.5,119 L530.5,102 L520.5,92 L408.5,92 " fill="#FEFFDD" style="stroke:#181818;stroke-width:0.5;"/><path d="M520.5,92 L520.5,102 L530.5,102 L520.5,92 " fill="#FEFFDD" style="stroke:#181818;stroke-width:0.5;"/><text fill="#000000" font-family="sans-serif" font-size="13" lengthAdjust="spacing" textLength="101" x="414.5" y="110.897">descenderPieza()</text></g><!--link descenderPieza to EN_CURSO_2--><g id="link_descenderPieza_EN_CURSO_2"><path d="M319.06,1059.24 C315.56,1077.97 313.5,1089 313.5,1089 C313.5,1089 313.5,1126 313.5,1126 C313.5,1126 314.0265,1135.4793 314.8265,1149.8493 " fill="none" id="descenderPieza-to-EN_CURSO_2" style="stroke:#008000;stroke-width:1.0;"/><polygon fill="#008000" points="315.16,1155.84,318.6535,1146.6316,314.8821,1150.8477,310.6659,1147.0763,315.16,1155.84" style="stroke:#008000;stroke-width:1.0;"/><path d="M318.5,1094 L318.5,1121 L443.5,1121 L443.5,1104 L433.5,1094 L318.5,1094 " fill="#FEFFDD" style="stroke:#181818;stroke-width:0.5;"/><path d="M433.5,1094 L433.5,1104 L443.5,1104 L433.5,1094 " fill="#FEFFDD" style="stroke:#181818;stroke-width:0.5;"/><text fill="#000000" font-family="sans-serif" font-size="13" lengthAdjust="spacing" textLength="104" x="324.5" y="1112.897">continuar partida</text></g><!--link descenderPieza to FINALIZADO--><g id="link_descenderPieza_FINALIZADO"><path d="M472.94,1059.29 C479.26,1100.37 483.6002,1128.5894 486.8802,1149.9694 " fill="none" id="descenderPieza-to-FINALIZADO" style="stroke:#FF0000;stroke-width:1.0;"/><polygon fill="#FF0000" points="487.79,1155.9,490.379,1146.3975,487.0318,1150.9578,482.4715,1147.6106,487.79,1155.9" style="stroke:#FF0000;stroke-width:1.0;"/><path d="M486.5,1094 L486.5,1121 L574.5,1121 L574.5,1104 L564.5,1094 L486.5,1094 " fill="#FEFFDD" style="stroke:#181818;stroke-width:0.5;"/><path d="M564.5,1094 L564.5,1104 L574.5,1104 L564.5,1094 " fill="#FEFFDD" style="stroke:#181818;stroke-width:0.5;"/><text fill="#000000" font-family="sans-serif" font-size="13" lengthAdjust="spacing" textLength="67" x="492.5" y="1112.897">Game Over</text></g><!--SRC=[dLHBQXj14DttAGfbumHCiDPYmCGV34OASRA9CQRKKxRBdkaUkdi4SiXXSe2iSWHTB3KVMTEQaR0jeKLtlwhtNbMf_1ER0XtcaB6Xi2m82fijguDIfzFRBp- -NStWyFh3lICoDuS9fEGrcPJSLwPdLCO60ckgy2SLlnryL7A02g6K3oZ0603eORGTCu9VIe5yceYHV0Lsqg1OVhOXxa7E-15tlvvcdBEf09VY3NqVSKw6N0MObhJ0xJJw22OJ_M1PKv9qxyVT-_hX-jDDLB5XxL7Xgel9FFdEb1TsydcUWBSPQmxObinRm3BOVFKdiBOrVbFRwjGZYIJeevsSL-m3vLYJ5euy6I4jclRem0iK8Z1LIMGol6XQ_JC3_5AVBc6l6JtgXa9onrbJWZihaM2b17D76wo7EqcQjgtRoouTU1Cfcq0kfvHn87VNIiGoE5AlBd70UKRELaKkCUDdJ9ksQWbkP3Ps1nHj4qUgTetncuLv5l3gRqsWRLva55gFEwUcDEAbBcl7rf230P7nl8xRlevVrzS7N0BvGhWjfEmBQrXCx1NRZdHdq8VcgkPtbEvbD_Oz0dBvL-DZjHFX77E2sO9SBE7tUcsk5_7jk5wPw-D8RMtSU3nVWk8bBGCMs9JeG1P_OEdFndC_NUlzx69wV7dny_Xa5YVRA7z9yXy0]--></g></svg>