<svg xmlns="http://www.w3.org/2000/svg" xmlns:xlink="http://www.w3.org/1999/xlink" contentStyleType="text/css" data-diagram-type="STATE" height="795px" preserveAspectRatio="none" style="width:371px;height:795px;background:#FFFFFF;" version="1.1" viewBox="0 0 371 795" width="371px" zoomAndPan="magnify"><defs/><g><path d="M19.5,152 L328.5,152 A12.5,12.5 0 0 1 341,164.5 L341,178.2969 L7,178.2969 L7,164.5 A12.5,12.5 0 0 1 19.5,152" fill="#F1F1F1"/><rect fill="none" height="492.2969" rx="12.5" ry="12.5" style="stroke:#181818;stroke-width:0.5;" width="334" x="7" y="152"/><line style="stroke:#181818;stroke-width:0.5;" x1="7" x2="341" y1="178.2969" y2="178.2969"/><text fill="#000000" font-family="sans-serif" font-size="14" lengthAdjust="spacing" textLength="103.1201" x="122.4399" y="169.9951">iniciarPartida()</text><g id="iniciarPartida.InicializandoJuego"><rect fill="#F1F1F1" height="50" rx="12.5" ry="12.5" style="stroke:#181818;stroke-width:0.5;" width="50" x="19" y="280.2969"/><line style="stroke:#181818;stroke-width:0.5;" x1="19" x2="69" y1="306.5938" y2="306.5938"/><text fill="#000000" font-family="sans-serif" font-size="14" lengthAdjust="spacing" textLength="4.4502" x="41.7749" y="298.292">&#160;</text></g><g id="iniciarPartida.PresentandoTablero"><rect fill="#F1F1F1" height="50" rx="12.5" ry="12.5" style="stroke:#181818;stroke-width:0.5;" width="50" x="19" y="416.2969"/><line style="stroke:#181818;stroke-width:0.5;" x1="19" x2="69" y1="442.5938" y2="442.5938"/><text fill="#000000" font-family="sans-serif" font-size="14" lengthAdjust="spacing" textLength="4.4502" x="41.7749" y="434.292">&#160;</text></g><ellipse cx="44" cy="199.2969" fill="#222222" rx="10" ry="10" style="stroke:#222222;stroke-width:1;"/><ellipse cx="44" cy="623.2969" fill="none" rx="11" ry="11" style="stroke:#222222;stroke-width:1;"/><ellipse cx="44" cy="623.2969" fill="#222222" rx="6" ry="6" style="stroke:#222222;stroke-width:1;"/><!--link *start*iniciarPartida to InicializandoJuego--><g class="link" data-entity-1="*start*iniciarPartida" data-entity-2="InicializandoJuego" data-source-line="21" data-uid="lnk9" id="link_*start*iniciarPartida_InicializandoJuego"><path d="M44,209.5269 C44,225.2369 44,251.6569 44,274.1669" fill="none" id="*start*iniciarPartida-to-InicializandoJuego" style="stroke:#008000;stroke-width:1;"/><polygon fill="#008000" points="44,280.1669,48,271.1669,44,275.1669,40,271.1669,44,280.1669" style="stroke:#008000;stroke-width:1;"/><path d="M49,232.2969 L49,257.2969 L271,257.2969 L271,242.2969 L261,232.2969 L49,232.2969" fill="#FEFFDD" style="stroke:#181818;stroke-width:0.5;"/><path d="M261,232.2969 L261,242.2969 L271,242.2969 L261,232.2969" fill="#FEFFDD" style="stroke:#181818;stroke-width:0.5;"/><text fill="#000000" font-family="sans-serif" font-size="13" font-weight="bold" lengthAdjust="spacing" textLength="56.8179" x="55" y="249.3638">Jugador</text><text fill="#000000" font-family="sans-serif" font-size="13" lengthAdjust="spacing" textLength="140.061" x="115.9502" y="249.3638">solicita iniciar partida</text></g><!--link InicializandoJuego to PresentandoTablero--><g class="link" data-entity-1="InicializandoJuego" data-entity-2="PresentandoTablero" data-source-line="26" data-uid="lnk10" id="link_InicializandoJuego_PresentandoTablero"><path d="M44,330.5669 C44,354.8469 44,385.9869 44,410.2069" fill="none" id="InicializandoJuego-to-PresentandoTablero" style="stroke:#008000;stroke-width:1;"/><polygon fill="#008000" points="44,416.2069,48,407.2069,44,411.2069,40,407.2069,44,416.2069" style="stroke:#008000;stroke-width:1;"/><path d="M49,353.2969 L49,393.2969 L332,393.2969 L332,363.2969 L322,353.2969 L49,353.2969" fill="#FEFFDD" style="stroke:#181818;stroke-width:0.5;"/><path d="M322,353.2969 L322,363.2969 L332,363.2969 L322,353.2969" fill="#FEFFDD" style="stroke:#181818;stroke-width:0.5;"/><text fill="#000000" font-family="sans-serif" font-size="13" font-weight="bold" lengthAdjust="spacing" textLength="58.9063" x="55" y="370.3638">Sistema</text><text fill="#000000" font-family="sans-serif" font-size="13" lengthAdjust="spacing" textLength="146.5293" x="118.0386" y="370.3638">presenta tablero vac&#237;o</text><text fill="#000000" font-family="sans-serif" font-size="13" font-weight="bold" lengthAdjust="spacing" textLength="58.9063" x="55" y="385.4966">Sistema</text><text fill="#000000" font-family="sans-serif" font-size="13" lengthAdjust="spacing" textLength="199.2656" x="118.0386" y="385.4966">presenta puntuaci&#243;n inicial (0)</text></g><!--link PresentandoTablero to *end*iniciarPartida--><g class="link" data-entity-1="PresentandoTablero" data-entity-2="*end*iniciarPartida" data-source-line="32" data-uid="lnk12" id="link_PresentandoTablero_*end*iniciarPartida"><path d="M44,466.5769 C44,506.4969 44,578.3469 44,606.1369" fill="none" id="PresentandoTablero-to-*end*iniciarPartida" style="stroke:#008000;stroke-width:1;"/><polygon fill="#008000" points="44,612.1369,48,603.1369,44,607.1369,40,603.1369,44,612.1369" style="stroke:#008000;stroke-width:1;"/><path d="M49,489.2969 L49,589.2969 L328,589.2969 L328,499.2969 L318,489.2969 L49,489.2969" fill="#FEFFDD" style="stroke:#181818;stroke-width:0.5;"/><path d="M318,489.2969 L318,499.2969 L328,499.2969 L318,489.2969" fill="#FEFFDD" style="stroke:#181818;stroke-width:0.5;"/><text fill="#000000" font-family="sans-serif" font-size="13" font-weight="bold" lengthAdjust="spacing" textLength="58.9063" x="55" y="506.3638">Sistema</text><text fill="#000000" font-family="sans-serif" font-size="13" lengthAdjust="spacing" textLength="195.3809" x="118.0386" y="506.3638">presenta primera pieza activa</text><text fill="#000000" font-family="sans-serif" font-size="13" font-weight="bold" lengthAdjust="spacing" textLength="58.9063" x="55" y="521.4966">Sistema</text><text fill="#000000" font-family="sans-serif" font-size="13" lengthAdjust="spacing" textLength="110.5952" x="118.0386" y="521.4966">permite solicitar:</text><text fill="#000000" font-family="sans-serif" font-size="13" lengthAdjust="spacing" textLength="97.8364" x="55" y="536.6294">&#8226; moverPieza()</text><text fill="#000000" font-family="sans-serif" font-size="13" lengthAdjust="spacing" textLength="87.8896" x="55" y="551.7622">&#8226; rotarPieza()</text><text fill="#000000" font-family="sans-serif" font-size="13" lengthAdjust="spacing" textLength="112.1948" x="55" y="566.895">&#8226; acelerarCaida()</text><text fill="#000000" font-family="sans-serif" font-size="13" lengthAdjust="spacing" textLength="120.8975" x="55" y="582.0278">&#8226; reiniciarPartida()</text></g><g id="INACTIVO"><rect fill="#F1F1F1" height="50" rx="12.5" ry="12.5" style="stroke:#181818;stroke-width:0.5;" width="87.2314" x="47.5" y="7"/><line style="stroke:#181818;stroke-width:0.5;" x1="47.5" x2="134.7314" y1="33.2969" y2="33.2969"/><text fill="#000000" font-family="sans-serif" font-size="14" lengthAdjust="spacing" textLength="67.2314" x="57.5" y="24.9951">INACTIVO</text></g><g id="EN_CURSO"><rect fill="#F1F1F1" height="50" rx="12.5" ry="12.5" style="stroke:#181818;stroke-width:0.5;" width="95.9746" x="126" y="739"/><line style="stroke:#181818;stroke-width:0.5;" x1="126" x2="221.9746" y1="765.2969" y2="765.2969"/><text fill="#000000" font-family="sans-serif" font-size="14" lengthAdjust="spacing" textLength="75.9746" x="136" y="756.9951">EN_CURSO</text></g><g id="FINALIZADO"><rect fill="#F1F1F1" height="50" rx="12.5" ry="12.5" style="stroke:#181818;stroke-width:0.5;" width="105.1279" x="204.5" y="7"/><line style="stroke:#181818;stroke-width:0.5;" x1="204.5" x2="309.6279" y1="33.2969" y2="33.2969"/><text fill="#000000" font-family="sans-serif" font-size="14" lengthAdjust="spacing" textLength="85.1279" x="214.5" y="24.9951">FINALIZADO</text></g><!--link INACTIVO to iniciarPartida--><g class="link" data-entity-1="INACTIVO" data-entity-2="iniciarPartida" data-source-line="3" data-uid="lnk3" id="link_INACTIVO_iniciarPartida"><path d="M89.66,57.16 C88.86,71.53 88,87 88,87 C88,87 88,122 88,122 C88,122 89.8286,127.8437 95.5786,146.2237" fill="none" id="INACTIVO-to-iniciarPartida" style="stroke:#008000;stroke-width:1;"/><polygon fill="#008000" points="97.37,151.95,98.5004,142.1662,95.8771,147.1781,90.8653,144.5548,97.37,151.95" style="stroke:#008000;stroke-width:1;"/><path d="M93,92 L93,117 L209,117 L209,102 L199,92 L93,92" fill="#FEFFDD" style="stroke:#181818;stroke-width:0.5;"/><path d="M199,92 L199,102 L209,102 L199,92" fill="#FEFFDD" style="stroke:#181818;stroke-width:0.5;"/><text fill="#000000" font-family="sans-serif" font-size="13" lengthAdjust="spacing" textLength="95.7544" x="99" y="109.0669">iniciarPartida()</text></g><!--link EN_CURSO to iniciarPartida--><g class="link" data-entity-1="EN_CURSO" data-entity-2="iniciarPartida" data-source-line="7" data-uid="lnk5" id="link_EN_CURSO_iniciarPartida"><path d="M195.03,738.84 C207.54,724.47 221,709 221,709 C221,709 221,674 221,674 C221,674 220.0304,668.3443 216.8904,649.9643" fill="none" id="EN_CURSO-to-iniciarPartida" style="stroke:#008000;stroke-width:1;"/><polygon fill="#008000" points="215.88,644.05,213.4527,653.5951,216.722,648.9786,221.3385,652.2479,215.88,644.05" style="stroke:#008000;stroke-width:1;"/><path d="M226,679 L226,704 L342,704 L342,689 L332,679 L226,679" fill="#FEFFDD" style="stroke:#181818;stroke-width:0.5;"/><path d="M332,679 L332,689 L342,689 L332,679" fill="#FEFFDD" style="stroke:#181818;stroke-width:0.5;"/><text fill="#000000" font-family="sans-serif" font-size="13" lengthAdjust="spacing" textLength="95.7544" x="232" y="696.0669">iniciarPartida()</text></g><!--link iniciarPartida to EN_CURSO--><g class="link" data-entity-1="iniciarPartida" data-entity-2="EN_CURSO" data-source-line="43" data-uid="lnk13" id="link_iniciarPartida_EN_CURSO"><path d="M91.13,644.05 C84.91,662.43 81,674 81,674 C81,674 81,709 81,709 C81,709 102.4401,721.4592 127.2101,735.8292" fill="none" id="iniciarPartida-to-EN_CURSO" style="stroke:#008000;stroke-width:1;"/><polygon fill="#008000" points="132.4,738.84,126.6224,730.8638,128.0751,736.331,122.608,737.7837,132.4,738.84" style="stroke:#008000;stroke-width:1;"/><path d="M86,679 L86,704 L208,704 L208,689 L198,679 L86,679" fill="#FEFFDD" style="stroke:#181818;stroke-width:0.5;"/><path d="M198,679 L198,689 L208,689 L198,679" fill="#FEFFDD" style="stroke:#181818;stroke-width:0.5;"/><text fill="#000000" font-family="sans-serif" font-size="13" lengthAdjust="spacing" textLength="101.0293" x="92" y="696.0669">partida iniciada</text></g><!--link FINALIZADO to iniciarPartida--><g class="link" data-entity-1="FINALIZADO" data-entity-2="iniciarPartida" data-source-line="11" data-uid="lnk7" id="link_FINALIZADO_iniciarPartida"><path d="M251.49,57.16 C246.55,78.84 240.0633,107.26 231.2633,145.87" fill="none" id="FINALIZADO-to-iniciarPartida" style="stroke:#008000;stroke-width:1;"/><polygon fill="#008000" points="229.93,151.72,235.83,143.8339,231.0411,146.845,228.03,142.0561,229.93,151.72" style="stroke:#008000;stroke-width:1;"/><path d="M248,92 L248,117 L364,117 L364,102 L354,92 L248,92" fill="#FEFFDD" style="stroke:#181818;stroke-width:0.5;"/><path d="M354,92 L354,102 L364,102 L354,92" fill="#FEFFDD" style="stroke:#181818;stroke-width:0.5;"/><text fill="#000000" font-family="sans-serif" font-size="13" lengthAdjust="spacing" textLength="95.7544" x="254" y="109.0669">iniciarPartida()</text></g><!--SRC=[hLF1Qi904BtlLmpseWLfpqK4iIr4YfLgUsYHCYQ3B2QxosOZQ2dqMthlgP_Wd_HBEec9c1WB1SaXcSbxB-_DREA5L0OjHX1AHMvb28mELsaXG01umrv_uZtTG_lbR6w9rBJT1QcaBz6Eq3eP8AEKTWHQfHeBBillcorkaGeo53_U35_xZm_ZKqhUiiqxxxbtVJfH4JjaS1a264EZoch0cs0cm9RHu8jXNeOAvHfLe0S9pVKXPcGf9kLIn0Hd8Lcz5NevdvPo7D6gf07epBg3P8w1jfsBMHTY7JBFOH42p6uG-q7Jwl0B9GCrHeyP6ClOKOIP0PFJm6r9i4H_ywN_X9f4kGHzkVbMkUyGcfUj6i-7fagUUOZ_CsciZCZoNTAQD-qxkSHQ0jb8icOnNdkLeNu-FY7IIxAZbDzixPfMCwRQH9_OCTe-5YSl1rFDeTnB_Yv4vKZkPov-BL4AdQyz7oVllr3x1G00]--></g></svg>