<svg xmlns="http://www.w3.org/2000/svg" xmlns:xlink="http://www.w3.org/1999/xlink" contentStyleType="text/css" data-diagram-type="STATE" height="781px" preserveAspectRatio="none" style="width:323px;height:781px;background:#FFFFFF;" version="1.1" viewBox="0 0 323 781" width="323px" zoomAndPan="magnify"><defs/><g><g id="INACTIVO"><rect fill="#F1F1F1" height="50" rx="12.5" ry="12.5" style="stroke:#181818;stroke-width:0.5;" width="87.2314" x="47" y="7"/><line style="stroke:#181818;stroke-width:0.5;" x1="47" x2="134.2314" y1="33.2969" y2="33.2969"/><text fill="#000000" font-family="sans-serif" font-size="14" lengthAdjust="spacing" textLength="67.2314" x="57" y="24.9951">INACTIVO</text></g><g id="EN_CURSO"><rect fill="#F1F1F1" height="50" rx="12.5" ry="12.5" style="stroke:#181818;stroke-width:0.5;" width="95.9746" x="110.5" y="725"/><line style="stroke:#181818;stroke-width:0.5;" x1="110.5" x2="206.4746" y1="751.2969" y2="751.2969"/><text fill="#000000" font-family="sans-serif" font-size="14" lengthAdjust="spacing" textLength="75.9746" x="120.5" y="742.9951">EN_CURSO</text></g><g id="FINALIZADO"><rect fill="#F1F1F1" height="50" rx="12.5" ry="12.5" style="stroke:#181818;stroke-width:0.5;" width="105.1279" x="175" y="7"/><line style="stroke:#181818;stroke-width:0.5;" x1="175" x2="280.1279" y1="33.2969" y2="33.2969"/><text fill="#000000" font-family="sans-serif" font-size="14" lengthAdjust="spacing" textLength="85.1279" x="185" y="24.9951">FINALIZADO</text></g><path d="M19.5,134 L297.2656,134 A12.5,12.5 0 0 1 309.7656,146.5 L309.7656,160.2969 L7,160.2969 L7,146.5 A12.5,12.5 0 0 1 19.5,134" fill="#F1F1F1"/><rect fill="none" height="514.2969" rx="12.5" ry="12.5" style="stroke:#181818;stroke-width:0.5;" width="302.7656" x="7" y="134"/><line style="stroke:#181818;stroke-width:0.5;" x1="7" x2="309.7656" y1="160.2969" y2="160.2969"/><text fill="#000000" font-family="sans-serif" font-size="14" lengthAdjust="spacing" textLength="103.1201" x="106.8228" y="151.9951">iniciarPartida()</text><ellipse cx="99.5" cy="181.2969" fill="#222222" rx="10" ry="10" style="stroke:#222222;stroke-width:1;"/><g id="iniciarPartida.InicializandoJuego"><rect fill="#F1F1F1" height="50" rx="12.5" ry="12.5" style="stroke:#181818;stroke-width:0.5;" width="146.1572" x="26.5" y="259.2969"/><line style="stroke:#181818;stroke-width:0.5;" x1="26.5" x2="172.6572" y1="285.5938" y2="285.5938"/><text fill="#000000" font-family="sans-serif" font-size="14" lengthAdjust="spacing" textLength="126.1572" x="36.5" y="277.292">InicializandoJuego</text></g><g id="iniciarPartida.PresentandoTablero"><rect fill="#F1F1F1" height="50" rx="12.5" ry="12.5" style="stroke:#181818;stroke-width:0.5;" width="160.8271" x="19" y="407.2969"/><line style="stroke:#181818;stroke-width:0.5;" x1="19" x2="179.8271" y1="433.5938" y2="433.5938"/><text fill="#000000" font-family="sans-serif" font-size="14" lengthAdjust="spacing" textLength="140.8271" x="29" y="425.292">PresentandoTablero</text></g><ellipse cx="99.5" cy="627.2969" fill="none" rx="11" ry="11" style="stroke:#222222;stroke-width:1;"/><ellipse cx="99.5" cy="627.2969" fill="#222222" rx="6" ry="6" style="stroke:#222222;stroke-width:1;"/><!--link *start*iniciarPartida to InicializandoJuego--><g class="link" data-entity-1="*start*iniciarPartida" data-entity-2="InicializandoJuego" data-source-line="17" data-uid="lnk7" id="link_*start*iniciarPartida_InicializandoJuego"><path d="M99.5,191.6169 C99.5,206.8569 99.5,231.5669 99.5,253.2369" fill="none" id="*start*iniciarPartida-to-InicializandoJuego" style="stroke:#181818;stroke-width:1;"/><polygon fill="#181818" points="99.5,259.2369,103.5,250.2369,99.5,254.2369,95.5,250.2369,99.5,259.2369" style="stroke:#181818;stroke-width:1;"/><text fill="#000000" font-family="sans-serif" font-size="13" lengthAdjust="spacing" textLength="49.8418" x="145.6096" y="222.3638">Jugador</text><text fill="#000000" font-family="sans-serif" font-size="13" lengthAdjust="spacing" textLength="140.061" x="100.5" y="237.4966">solicita iniciar partida</text></g><!--link InicializandoJuego to PresentandoTablero--><g class="link" data-entity-1="InicializandoJuego" data-entity-2="PresentandoTablero" data-source-line="18" data-uid="lnk9" id="link_InicializandoJuego_PresentandoTablero"><path d="M99.5,309.4069 C99.5,336.4569 99.5,374.0869 99.5,401.1569" fill="none" id="InicializandoJuego-to-PresentandoTablero" style="stroke:#181818;stroke-width:1;"/><polygon fill="#181818" points="99.5,407.1569,103.5,398.1569,99.5,402.1569,95.5,398.1569,99.5,407.1569" style="stroke:#181818;stroke-width:1;"/><text fill="#000000" font-family="sans-serif" font-size="13" lengthAdjust="spacing" textLength="52.3618" x="173.9519" y="340.3638">Sistema</text><text fill="#000000" font-family="sans-serif" font-size="13" lengthAdjust="spacing" textLength="146.5293" x="126.8682" y="355.4966">presenta tablero vac&#237;o</text><text fill="#000000" font-family="sans-serif" font-size="13" lengthAdjust="spacing" textLength="52.3618" x="173.9519" y="370.6294">Sistema</text><text fill="#000000" font-family="sans-serif" font-size="13" lengthAdjust="spacing" textLength="199.2656" x="100.5" y="385.7622">presenta puntuaci&#243;n inicial (0)</text></g><!--link PresentandoTablero to *end*iniciarPartida--><g class="link" data-entity-1="PresentandoTablero" data-entity-2="*end*iniciarPartida" data-source-line="19" data-uid="lnk11" id="link_PresentandoTablero_*end*iniciarPartida"><path d="M99.5,457.3469 C99.5,499.7869 99.5,580.2869 99.5,610.0069" fill="none" id="PresentandoTablero-to-*end*iniciarPartida" style="stroke:#181818;stroke-width:1;"/><polygon fill="#181818" points="99.5,616.0069,103.5,607.0069,99.5,611.0069,95.5,607.0069,99.5,616.0069" style="stroke:#181818;stroke-width:1;"/><text fill="#000000" font-family="sans-serif" font-size="13" lengthAdjust="spacing" textLength="52.3618" x="172.0095" y="488.3638">Sistema</text><text fill="#000000" font-family="sans-serif" font-size="13" lengthAdjust="spacing" textLength="195.3809" x="100.5" y="503.4966">presenta primera pieza activa</text><text fill="#000000" font-family="sans-serif" font-size="13" lengthAdjust="spacing" textLength="52.3618" x="172.0095" y="518.6294">Sistema</text><text fill="#000000" font-family="sans-serif" font-size="13" lengthAdjust="spacing" textLength="110.5952" x="142.8928" y="533.7622">permite solicitar:</text><text fill="#000000" font-family="sans-serif" font-size="13" lengthAdjust="spacing" textLength="97.8364" x="149.2722" y="548.895">&#8226; moverPieza()</text><text fill="#000000" font-family="sans-serif" font-size="13" lengthAdjust="spacing" textLength="87.8896" x="154.2456" y="564.0278">&#8226; rotarPieza()</text><text fill="#000000" font-family="sans-serif" font-size="13" lengthAdjust="spacing" textLength="112.1948" x="142.093" y="579.1606">&#8226; acelerarCaida()</text><text fill="#000000" font-family="sans-serif" font-size="13" lengthAdjust="spacing" textLength="120.8975" x="137.7417" y="594.2935">&#8226; reiniciarPartida()</text></g><!--link INACTIVO to iniciarPartida--><g class="link" data-entity-1="INACTIVO" data-entity-2="iniciarPartida" data-source-line="11" data-uid="lnk2" id="link_INACTIVO_iniciarPartida"><path d="M87.53,57.07 C86.32,70.85 85.6,88.45 87.5,104 C88.7,113.78 89.1611,117.7755 90.7611,127.7655" fill="none" id="INACTIVO-to-iniciarPartida" style="stroke:#181818;stroke-width:1;"/><polygon fill="#181818" points="91.71,133.69,94.2364,124.1707,90.9193,128.7529,86.337,125.4358,91.71,133.69" style="stroke:#181818;stroke-width:1;"/><text fill="#000000" font-family="sans-serif" font-size="13" lengthAdjust="spacing" textLength="95.7544" x="88.5" y="100.0669">iniciarPartida()</text></g><!--link EN_CURSO to iniciarPartida--><g class="link" data-entity-1="EN_CURSO" data-entity-2="iniciarPartida" data-source-line="12" data-uid="lnk3" id="link_EN_CURSO_iniciarPartida"><path d="M177.19,724.8 C182.95,715.92 188.55,705.47 191.5,695 C193.55,687.73 191.93,685.54 191.5,678 C190.94,668.27 190.7187,664.3432 189.9687,654.3432" fill="none" id="EN_CURSO-to-iniciarPartida" style="stroke:#181818;stroke-width:1;"/><polygon fill="#181818" points="189.52,648.36,186.2043,657.634,189.8939,653.346,194.1819,657.0356,189.52,648.36" style="stroke:#181818;stroke-width:1;"/><text fill="#000000" font-family="sans-serif" font-size="13" lengthAdjust="spacing" textLength="95.7544" x="193.5" y="691.0669">iniciarPartida()</text></g><!--link iniciarPartida to EN_CURSO--><g class="link" data-entity-1="iniciarPartida" data-entity-2="EN_CURSO" data-source-line="22" data-uid="lnk12" id="link_iniciarPartida_EN_CURSO"><path d="M85.13,648.2 C83.37,658.22 81.82,668.18 80.5,678 C79.5,685.49 76.99,688.31 80.5,695 C87.15,707.69 93.3381,714.602 105.1481,722.682" fill="none" id="iniciarPartida-to-EN_CURSO" style="stroke:#181818;stroke-width:1;"/><polygon fill="#181818" points="110.1,726.07,104.9307,717.6868,105.9734,723.2467,100.4134,724.2894,110.1,726.07" style="stroke:#181818;stroke-width:1;"/><text fill="#000000" font-family="sans-serif" font-size="13" lengthAdjust="spacing" textLength="101.0293" x="81.5" y="691.0669">partida iniciada</text></g><!--link FINALIZADO to iniciarPartida--><g class="link" data-entity-1="FINALIZADO" data-entity-2="iniciarPartida" data-source-line="13" data-uid="lnk4" id="link_FINALIZADO_iniciarPartida"><path d="M222.81,57.26 C219.28,75.54 215.1584,96.839 209.1484,127.939" fill="none" id="FINALIZADO-to-iniciarPartida" style="stroke:#181818;stroke-width:1;"/><polygon fill="#181818" points="208.01,133.83,213.645,125.7524,208.9587,128.9208,205.7903,124.2345,208.01,133.83" style="stroke:#181818;stroke-width:1;"/><text fill="#000000" font-family="sans-serif" font-size="13" lengthAdjust="spacing" textLength="95.7544" x="216.5" y="100.0669">iniciarPartida()</text></g><!--SRC=[ZL9DIyD04BtdLmprqWe52nwa1w562odI5bizQ4J6P2XBazqmsVHG4VmjtZtv4_fF_2Nkfhj-f3sKFOHzR-QzpDifbq8Mo9X3gL4Jl0G05vWi5wmgcOOgKmn7mvuzbb6S4ZkqTsQFGOTAwfbO4_HEWzSWs0f5uq4uZ-ucxderVWflRsR-EZJqTNG_k9m4WQ-4RlSSX1I9G9uYQv4Yz1j0knDufGFBVvqERF03j9fC2x1izjku7euVQ-cefZAnHfcgKKKBPUH7rG9JnR4iLMPeZLu1Ygs44TZJQFMcJ2L9RS4vFcV4LcycIaqvnh9mB6Z7hJ3PVAXOxbOKbTGL9cBpAPrx1ksJZd7UOs6TxKJxh0eMER7v2beZOAB52lyQ4kV29ET7vNuilzxU8LShugdjQNUs22l3_aCm8MEF76ATjIkZdTSn-zLu0ll3FplHzx6wGKs-ZGNy1W00]--></g></svg>