<?xml version="1.0" encoding="us-ascii" standalone="no"?><svg xmlns="http://www.w3.org/2000/svg" xmlns:xlink="http://www.w3.org/1999/xlink" contentStyleType="text/css" height="825px" preserveAspectRatio="none" style="width:326px;height:825px;background:#FFFFFF;" version="1.1" viewBox="0 0 326 825" width="326px" zoomAndPan="magnify"><defs/><g><g id="INACTIVO"><rect fill="#F1F1F1" height="50" rx="12.5" ry="12.5" style="stroke:#181818;stroke-width:0.5;" width="86" x="117" y="7"/><line style="stroke:#181818;stroke-width:0.5;" x1="117" x2="203" y1="36.0679" y2="36.0679"/><text fill="#000000" font-family="sans-serif" font-size="14" lengthAdjust="spacing" textLength="66" x="127" y="26.9659">INACTIVO</text></g><path d="M19.5,154 L300.5,154 A12.5,12.5 0 0 1 313,166.5 L313,183.0679 L7,183.0679 L7,166.5 A12.5,12.5 0 0 1 19.5,154 " fill="#F1F1F1" style="stroke:#F1F1F1;stroke-width:1.0;"/><rect fill="none" height="518.0679" rx="12.5" ry="12.5" style="stroke:#181818;stroke-width:0.5;" width="306" x="7" y="154"/><line style="stroke:#181818;stroke-width:0.5;" x1="7" x2="313" y1="183.0679" y2="183.0679"/><text fill="#000000" font-family="sans-serif" font-size="14" lengthAdjust="spacing" textLength="98" x="111" y="173.9659">iniciarPartida()</text><g id="iniciarPartida.InicializandoJuego"><rect fill="#F1F1F1" height="50" rx="12.5" ry="12.5" style="stroke:#181818;stroke-width:0.5;" width="50" x="19" y="287.0679"/><line style="stroke:#181818;stroke-width:0.5;" x1="19" x2="69" y1="316.1358" y2="316.1358"/><text fill="#000000" font-family="sans-serif" font-size="14" lengthAdjust="spacing" textLength="4" x="42" y="307.0339">&#160;</text></g><g id="iniciarPartida.PresentandoTablero"><rect fill="#F1F1F1" height="50" rx="12.5" ry="12.5" style="stroke:#181818;stroke-width:0.5;" width="50" x="19" y="428.0679"/><line style="stroke:#181818;stroke-width:0.5;" x1="19" x2="69" y1="457.1358" y2="457.1358"/><text fill="#000000" font-family="sans-serif" font-size="14" lengthAdjust="spacing" textLength="4" x="42" y="448.0339">&#160;</text></g><ellipse cx="44" cy="204.0679" fill="#222222" rx="10" ry="10" style="stroke:#222222;stroke-width:1.0;"/><ellipse cx="44" cy="651.0679" fill="none" rx="11" ry="11" style="stroke:#222222;stroke-width:1.0;"/><ellipse cx="44" cy="651.0679" fill="#222222" rx="6" ry="6" style="stroke:#222222;stroke-width:1.0;"/><!--link *start*iniciarPartida to InicializandoJuego--><g id="link_*start*iniciarPartida_InicializandoJuego"><path d="M44,214.1079 C44,230.0279 44,257.5779 44,280.7079 " fill="none" id="*start*iniciarPartida-to-InicializandoJuego" style="stroke:#008000;stroke-width:1.0;"/><polygon fill="#008000" points="44,286.7079,48,277.7079,44,281.7079,40,277.7079,44,286.7079" style="stroke:#008000;stroke-width:1.0;"/><path d="M49,237.0679 L49,264.0679 L249,264.0679 L249,247.0679 L239,237.0679 L49,237.0679 " fill="#FEFFDD" style="stroke:#181818;stroke-width:0.5;"/><path d="M239,237.0679 L239,247.0679 L249,247.0679 L239,237.0679 " fill="#FEFFDD" style="stroke:#181818;stroke-width:0.5;"/><text fill="#000000" font-family="sans-serif" font-size="13" font-weight="bold" lengthAdjust="spacing" textLength="51" x="55" y="255.9649">Jugador</text><text fill="#000000" font-family="sans-serif" font-size="13" lengthAdjust="spacing" textLength="125" x="109" y="255.9649">solicita iniciar partida</text></g><!--link InicializandoJuego to PresentandoTablero--><g id="link_InicializandoJuego_PresentandoTablero"><path d="M44,337.2779 C44,362.6379 44,396.2379 44,421.6679 " fill="none" id="InicializandoJuego-to-PresentandoTablero" style="stroke:#008000;stroke-width:1.0;"/><polygon fill="#008000" points="44,427.6679,48,418.6679,44,422.6679,40,418.6679,44,427.6679" style="stroke:#008000;stroke-width:1.0;"/><path d="M49,360.0679 L49,405.0679 L304,405.0679 L304,370.0679 L294,360.0679 L49,360.0679 " fill="#FEFFDD" style="stroke:#181818;stroke-width:0.5;"/><path d="M294,360.0679 L294,370.0679 L304,370.0679 L294,360.0679 " fill="#FEFFDD" style="stroke:#181818;stroke-width:0.5;"/><text fill="#000000" font-family="sans-serif" font-size="13" font-weight="bold" lengthAdjust="spacing" textLength="52" x="55" y="378.9649">Sistema</text><text fill="#000000" font-family="sans-serif" font-size="13" lengthAdjust="spacing" textLength="133" x="110" y="378.9649">presenta tablero vac&#237;o</text><text fill="#000000" font-family="sans-serif" font-size="13" font-weight="bold" lengthAdjust="spacing" textLength="52" x="55" y="396.6709">Sistema</text><text fill="#000000" font-family="sans-serif" font-size="13" lengthAdjust="spacing" textLength="179" x="110" y="396.6709">presenta puntuaci&#243;n inicial (0)</text></g><!--link PresentandoTablero to *end*iniciarPartida--><g id="link_PresentandoTablero_*end*iniciarPartida"><path d="M44,478.0979 C44,521.2379 44,604.0879 44,633.9979 " fill="none" id="PresentandoTablero-to-*end*iniciarPartida" style="stroke:#008000;stroke-width:1.0;"/><polygon fill="#008000" points="44,639.9979,48,630.9979,44,634.9979,40,630.9979,44,639.9979" style="stroke:#008000;stroke-width:1.0;"/><path d="M49,501.0679 L49,617.0679 L300,617.0679 L300,511.0679 L290,501.0679 L49,501.0679 " fill="#FEFFDD" style="stroke:#181818;stroke-width:0.5;"/><path d="M290,501.0679 L290,511.0679 L300,511.0679 L290,501.0679 " fill="#FEFFDD" style="stroke:#181818;stroke-width:0.5;"/><text fill="#000000" font-family="sans-serif" font-size="13" font-weight="bold" lengthAdjust="spacing" textLength="52" x="55" y="519.9649">Sistema</text><text fill="#000000" font-family="sans-serif" font-size="13" lengthAdjust="spacing" textLength="175" x="110" y="519.9649">presenta primera pieza activa</text><text fill="#000000" font-family="sans-serif" font-size="13" font-weight="bold" lengthAdjust="spacing" textLength="52" x="55" y="537.6709">Sistema</text><text fill="#000000" font-family="sans-serif" font-size="13" lengthAdjust="spacing" textLength="99" x="110" y="537.6709">permite solicitar:</text><text fill="#000000" font-family="sans-serif" font-size="13" lengthAdjust="spacing" textLength="86" x="55" y="555.377">&#8226; moverPieza()</text><text fill="#000000" font-family="sans-serif" font-size="13" lengthAdjust="spacing" textLength="77" x="55" y="573.083">&#8226; rotarPieza()</text><text fill="#000000" font-family="sans-serif" font-size="13" lengthAdjust="spacing" textLength="96" x="55" y="590.789">&#8226; acelerarCaida()</text><text fill="#000000" font-family="sans-serif" font-size="13" lengthAdjust="spacing" textLength="106" x="55" y="608.495">&#8226; reiniciarPartida()</text></g><g id="EN_CURSO"><rect fill="#F1F1F1" height="50" rx="12.5" ry="12.5" style="stroke:#181818;stroke-width:0.5;" width="92" x="114" y="769"/><line style="stroke:#181818;stroke-width:0.5;" x1="114" x2="206" y1="798.0679" y2="798.0679"/><text fill="#000000" font-family="sans-serif" font-size="14" lengthAdjust="spacing" textLength="72" x="124" y="788.9659">EN_CURSO</text></g><!--link INACTIVO to iniciarPartida--><g id="link_INACTIVO_iniciarPartida"><path d="M160,57.28 C160,79.26 160,108.17 160,147.7 " fill="none" id="INACTIVO-to-iniciarPartida" style="stroke:#008000;stroke-width:1.0;"/><polygon fill="#008000" points="160,153.7,164,144.7,160,148.7,156,144.7,160,153.7" style="stroke:#008000;stroke-width:1.0;"/><path d="M165,92 L165,119 L272,119 L272,102 L262,92 L165,92 " fill="#FEFFDD" style="stroke:#181818;stroke-width:0.5;"/><path d="M262,92 L262,102 L272,102 L262,92 " fill="#FEFFDD" style="stroke:#181818;stroke-width:0.5;"/><text fill="#000000" font-family="sans-serif" font-size="13" lengthAdjust="spacing" textLength="86" x="171" y="110.897">iniciarPartida()</text></g><!--link iniciarPartida to EN_CURSO--><g id="link_iniciarPartida_EN_CURSO"><path d="M160,672.04 C160,711.62 160,740.59 160,762.62 " fill="none" id="iniciarPartida-to-EN_CURSO" style="stroke:#008000;stroke-width:1.0;"/><polygon fill="#008000" points="160,768.62,164,759.62,160,763.62,156,759.62,160,768.62" style="stroke:#008000;stroke-width:1.0;"/><path d="M165,707 L165,734 L277,734 L277,717 L267,707 L165,707 " fill="#FEFFDD" style="stroke:#181818;stroke-width:0.5;"/><path d="M267,707 L267,717 L277,717 L267,707 " fill="#FEFFDD" style="stroke:#181818;stroke-width:0.5;"/><text fill="#000000" font-family="sans-serif" font-size="13" lengthAdjust="spacing" textLength="91" x="171" y="725.897">partida iniciada</text></g><!--SRC=[bPB1Qi9048Rl-nI3lMX1sdCHeOW7FQXKsuj86PD15fFTPR8Hj1JwBBttr4VmJVeadSGe9iP2oI7ivFid_p-poLeRXumnHDgGtpe2PwDjTb2W00QZnzviy3A6zlncnKHcqUw2DZhGo1DahqCKobXFO4tMOot7ylTcIqfamfnIAl4eS1a1JA1HLJNWJOaIuA1eo2FO8ASYlKCJsc5AAtl9J9WICZuZPhYCYEsXqVnsKSfnfLSb3K1dsHscAmmjT-wMNKXi93gFnn3WJeCu3vgTBlzGCb1Zz9g1gKuynPWRS8KC_4446mpsN_PFrAN6fnZe_RSfV4VGl6_LUBuqLV8iG_oVISSw9fQtffriEl1wWxK2ubXBp-Du-I6dVZu-8RORuaccRxPEHRR2L8iOa3X6xk7nvXKmrLpAi-JlIbMkv7dc_kYrz_mq7QjIw6BjnJXb_wTklm00]--></g></svg>