<?xml version="1.0" encoding="us-ascii" standalone="no"?><svg xmlns="http://www.w3.org/2000/svg" xmlns:xlink="http://www.w3.org/1999/xlink" contentStyleType="text/css" height="640px" preserveAspectRatio="none" style="width:461px;height:640px;background:#FFFFFF;" version="1.1" viewBox="0 0 461 640" width="461px" zoomAndPan="magnify"><defs/><g><g id="EN_CURSO"><rect fill="#F1F1F1" height="50" rx="12.5" ry="12.5" style="stroke:#181818;stroke-width:0.5;" width="92" x="179.5" y="7"/><line style="stroke:#181818;stroke-width:0.5;" x1="179.5" x2="271.5" y1="36.0679" y2="36.0679"/><text fill="#000000" font-family="sans-serif" font-size="14" lengthAdjust="spacing" textLength="72" x="189.5" y="26.9659">EN_CURSO</text></g><path d="M19.5,154 L431.5,154 A12.5,12.5 0 0 1 444,166.5 L444,183.0679 L7,183.0679 L7,166.5 A12.5,12.5 0 0 1 19.5,154 " fill="#F1F1F1" style="stroke:#F1F1F1;stroke-width:1.0;"/><rect fill="none" height="333.0679" rx="12.5" ry="12.5" style="stroke:#181818;stroke-width:0.5;" width="437" x="7" y="154"/><line style="stroke:#181818;stroke-width:0.5;" x1="7" x2="444" y1="183.0679" y2="183.0679"/><text fill="#000000" font-family="sans-serif" font-size="14" lengthAdjust="spacing" textLength="85" x="183" y="173.9659">moverPieza()</text><g id="elem_c1"><polygon fill="#F1F1F1" points="134,305.0679,146,317.0679,134,329.0679,122,317.0679,134,305.0679" style="stroke:#181818;stroke-width:0.5;"/></g><ellipse cx="134" cy="204.0679" fill="#222222" rx="10" ry="10" style="stroke:#222222;stroke-width:1.0;"/><ellipse cx="134" cy="466.0679" fill="none" rx="11" ry="11" style="stroke:#222222;stroke-width:1.0;"/><ellipse cx="134" cy="466.0679" fill="#222222" rx="6" ry="6" style="stroke:#222222;stroke-width:1.0;"/><!--link *start*moverPieza to c1--><g id="link_*start*moverPieza_c1"><path d="M134,214.1479 C134,234.3479 134,276.9079 134,298.9079 " fill="none" id="*start*moverPieza-to-c1" style="stroke:#008000;stroke-width:1.0;"/><polygon fill="#008000" points="134,304.9079,138,295.9079,134,299.9079,130,295.9079,134,304.9079" style="stroke:#008000;stroke-width:1.0;"/><path d="M139,237.0679 L139,282.0679 L331,282.0679 L331,247.0679 L321,237.0679 L139,237.0679 " fill="#FEFFDD" style="stroke:#181818;stroke-width:0.5;"/><path d="M321,237.0679 L321,247.0679 L331,247.0679 L321,237.0679 " fill="#FEFFDD" style="stroke:#181818;stroke-width:0.5;"/><text fill="#000000" font-family="sans-serif" font-size="13" font-weight="bold" lengthAdjust="spacing" textLength="51" x="145" y="255.9649">Jugador</text><text fill="#000000" font-family="sans-serif" font-size="13" lengthAdjust="spacing" textLength="117" x="199" y="255.9649">solicita mover pieza</text><text fill="#000000" font-family="sans-serif" font-size="13" lengthAdjust="spacing" textLength="125" x="145" y="273.6709">(izquierda o derecha)</text></g><!--link c1 to *end*moverPieza--><g id="link_c1_*end*moverPieza"><path d="M124.9,320.3479 C97.55,327.1779 18,347.0679 18,347.0679 C18,347.0679 18,437.0679 18,437.0679 C18,437.0679 88.748,454.1382 117.458,461.0782 " fill="none" id="c1-to-*end*moverPieza" style="stroke:#008000;stroke-width:1.0;"/><polygon fill="#008000" points="123.29,462.4879,115.4818,456.4853,118.43,461.3131,113.6021,464.2613,123.29,462.4879" style="stroke:#008000;stroke-width:1.0;"/><path d="M23,360.5679 L23,423.5679 L224,423.5679 L224,370.5679 L214,360.5679 L23,360.5679 " fill="#FEFFDD" style="stroke:#181818;stroke-width:0.5;"/><path d="M214,360.5679 L214,370.5679 L224,370.5679 L214,360.5679 " fill="#FEFFDD" style="stroke:#181818;stroke-width:0.5;"/><text fill="#000000" font-family="sans-serif" font-size="13" lengthAdjust="spacing" textLength="88" x="29" y="379.4649">posici&#243;n v&#225;lida</text><text fill="#000000" font-family="sans-serif" font-size="13" font-weight="bold" lengthAdjust="spacing" textLength="52" x="29" y="397.1709">Sistema</text><text fill="#000000" font-family="sans-serif" font-size="13" lengthAdjust="spacing" textLength="125" x="84" y="397.1709">presenta pieza activa</text><text fill="#000000" font-family="sans-serif" font-size="13" lengthAdjust="spacing" textLength="108" x="29" y="414.877">en nueva posici&#243;n</text></g><!--link c1 to *end*moverPieza--><g id="link_c1_*end*moverPieza"><path d="M142.43,320.6379 C165.68,327.7379 229,347.0679 229,347.0679 C229,347.0679 229,437.0679 229,437.0679 C229,437.0679 175.0152,452.9814 150.2852,460.2714 " fill="none" id="c1-to-*end*moverPieza-1" style="stroke:#FF0000;stroke-width:1.0;"/><polygon fill="#FF0000" points="144.53,461.9679,154.2937,463.2599,149.326,460.5541,152.0317,455.5864,144.53,461.9679" style="stroke:#FF0000;stroke-width:1.0;"/><path d="M234,352.0679 L234,432.0679 L435,432.0679 L435,362.0679 L425,352.0679 L234,352.0679 " fill="#FEFFDD" style="stroke:#181818;stroke-width:0.5;"/><path d="M425,352.0679 L425,362.0679 L435,362.0679 L425,352.0679 " fill="#FEFFDD" style="stroke:#181818;stroke-width:0.5;"/><text fill="#000000" font-family="sans-serif" font-size="13" lengthAdjust="spacing" textLength="99" x="240" y="370.9649">posici&#243;n inv&#225;lida</text><text fill="#000000" font-family="sans-serif" font-size="13" lengthAdjust="spacing" textLength="100" x="240" y="388.6709">(colisi&#243;n o l&#237;mite)</text><text fill="#000000" font-family="sans-serif" font-size="13" font-weight="bold" lengthAdjust="spacing" textLength="52" x="240" y="406.377">Sistema</text><text fill="#000000" font-family="sans-serif" font-size="13" lengthAdjust="spacing" textLength="125" x="295" y="406.377">presenta pieza activa</text><text fill="#000000" font-family="sans-serif" font-size="13" lengthAdjust="spacing" textLength="141" x="240" y="424.083">en posici&#243;n sin cambios</text></g><g id="EN_CURSO_2"><rect fill="#F1F1F1" height="50" rx="12.5" ry="12.5" style="stroke:#181818;stroke-width:0.5;" width="92" x="179.5" y="584"/><line style="stroke:#181818;stroke-width:0.5;" x1="179.5" x2="271.5" y1="613.0679" y2="613.0679"/><text fill="#000000" font-family="sans-serif" font-size="14" lengthAdjust="spacing" textLength="72" x="189.5" y="603.9659">EN_CURSO</text></g><!--link EN_CURSO to moverPieza--><g id="link_EN_CURSO_moverPieza"><path d="M225.5,57.43 C225.5,80.03 225.5,109.76 225.5,147.66 " fill="none" id="EN_CURSO-to-moverPieza" style="stroke:#008000;stroke-width:1.0;"/><polygon fill="#008000" points="225.5,153.66,229.5,144.66,225.5,148.66,221.5,144.66,225.5,153.66" style="stroke:#008000;stroke-width:1.0;"/><path d="M230.5,92 L230.5,119 L329.5,119 L329.5,102 L319.5,92 L230.5,92 " fill="#FEFFDD" style="stroke:#181818;stroke-width:0.5;"/><path d="M319.5,92 L319.5,102 L329.5,102 L319.5,92 " fill="#FEFFDD" style="stroke:#181818;stroke-width:0.5;"/><text fill="#000000" font-family="sans-serif" font-size="13" lengthAdjust="spacing" textLength="78" x="236.5" y="110.897">moverPieza()</text></g><!--link moverPieza to EN_CURSO_2--><g id="link_moverPieza_EN_CURSO_2"><path d="M138.14,487.31 C128.74,505.16 122.5,517 122.5,517 C122.5,517 122.5,554 122.5,554 C122.5,554 146.6856,566.6849 174.1056,581.0549 " fill="none" id="moverPieza-to-EN_CURSO_2" style="stroke:#008000;stroke-width:1.0;"/><polygon fill="#008000" points="179.42,583.84,173.3051,576.1194,174.9913,581.5191,169.5916,583.2053,179.42,583.84" style="stroke:#008000;stroke-width:1.0;"/><path d="M127.5,522 L127.5,549 L278.5,549 L278.5,532 L268.5,522 L127.5,522 " fill="#FEFFDD" style="stroke:#181818;stroke-width:0.5;"/><path d="M268.5,522 L268.5,532 L278.5,532 L268.5,522 " fill="#FEFFDD" style="stroke:#181818;stroke-width:0.5;"/><text fill="#000000" font-family="sans-serif" font-size="13" lengthAdjust="spacing" textLength="130" x="133.5" y="540.897">movimiento realizado</text></g><!--link moverPieza to EN_CURSO_2--><g id="link_moverPieza_EN_CURSO_2"><path d="M278.08,487.31 C283.75,505.16 287.5,517 287.5,517 C287.5,517 287.5,554 287.5,554 C287.5,554 274.2646,565.5295 257.7646,579.8995 " fill="none" id="moverPieza-to-EN_CURSO_2-1" style="stroke:#FF0000;stroke-width:1.0;"/><polygon fill="#FF0000" points="253.24,583.84,262.654,580.9456,257.0105,580.5562,257.3999,574.9128,253.24,583.84" style="stroke:#FF0000;stroke-width:1.0;"/><path d="M292.5,522 L292.5,549 L454.5,549 L454.5,532 L444.5,522 L292.5,522 " fill="#FEFFDD" style="stroke:#181818;stroke-width:0.5;"/><path d="M444.5,522 L444.5,532 L454.5,532 L444.5,522 " fill="#FEFFDD" style="stroke:#181818;stroke-width:0.5;"/><text fill="#000000" font-family="sans-serif" font-size="13" lengthAdjust="spacing" textLength="141" x="298.5" y="540.897">movimiento bloqueado</text></g><!--SRC=[bPB1JiCm38RlUGfhN3ga2OrprGlYmW4G4wTfcjpKsgobIPQqbJR4m_00d7Y4lHXfkwgj06daPl-E_q-s_OwrHOSvADPK72o1DUfG1qBSFwxlNbyMJp1RNcqSaLxD4iXDHUwPwOX2cuB0wFhhJlJvQ2f8Pr2hGlW2Gr4l0dgO36idy2O4XDTMoZd4iTmQbfGahR2yNeq8vBn9ZzphH9mc3-K6C-FYcpG1RnHBBh0r1ziWrtKH7_SbayiG36JaI6vnsYWzTXq5bA5jmFZTrneVZ4vV6ghJX-8CEve5-u9oR6Yi8qywqDXs2hBW2i-ce4kgiE_p9ukZx48IraEMI8PP-4Ome4wVEHSq_JTbtzsp1ebvoiQFMT-xXNUdixvj5jw54p6uaz5q-my_pefp3am67A7YOzZluBp6tSxpkQ1Ngio-f56lRm00]--></g></svg>