<?xml version="1.0" encoding="us-ascii" standalone="no"?><svg xmlns="http://www.w3.org/2000/svg" xmlns:xlink="http://www.w3.org/1999/xlink" contentStyleType="text/css" height="886px" preserveAspectRatio="none" style="width:518px;height:886px;background:#FFFFFF;" version="1.1" viewBox="0 0 518 886" width="518px" zoomAndPan="magnify"><defs/><g><g id="EN_CURSO"><rect fill="#F1F1F1" height="50" rx="12.5" ry="12.5" style="stroke:#181818;stroke-width:0.5;" width="92" x="100" y="7"/><line style="stroke:#181818;stroke-width:0.5;" x1="100" x2="192" y1="36.0679" y2="36.0679"/><text fill="#000000" font-family="sans-serif" font-size="14" lengthAdjust="spacing" textLength="72" x="110" y="26.9659">EN_CURSO</text></g><path d="M27,154 L433,154 A12.5,12.5 0 0 1 445.5,166.5 L445.5,183.0679 L14.5,183.0679 L14.5,166.5 A12.5,12.5 0 0 1 27,154 " fill="#F1F1F1" style="stroke:#F1F1F1;stroke-width:1.0;"/><rect fill="none" height="579.0679" rx="12.5" ry="12.5" style="stroke:#181818;stroke-width:0.5;" width="431" x="14.5" y="154"/><line style="stroke:#181818;stroke-width:0.5;" x1="14.5" x2="445.5" y1="183.0679" y2="183.0679"/><text fill="#000000" font-family="sans-serif" font-size="14" lengthAdjust="spacing" textLength="112" x="174" y="173.9659">reiniciarPartida()</text><g id="reiniciarPartida.SolicitandoReinicio"><rect fill="#F1F1F1" height="50" rx="12.5" ry="12.5" style="stroke:#181818;stroke-width:0.5;" width="50" x="125.5" y="287.0679"/><line style="stroke:#181818;stroke-width:0.5;" x1="125.5" x2="175.5" y1="316.1358" y2="316.1358"/><text fill="#000000" font-family="sans-serif" font-size="14" lengthAdjust="spacing" textLength="4" x="148.5" y="307.0339">&#160;</text></g><g id="reiniciarPartida.ConfirmandoReinicio"><rect fill="#F1F1F1" height="50" rx="12.5" ry="12.5" style="stroke:#181818;stroke-width:0.5;" width="50" x="125.5" y="463.0679"/><line style="stroke:#181818;stroke-width:0.5;" x1="125.5" x2="175.5" y1="492.1358" y2="492.1358"/><text fill="#000000" font-family="sans-serif" font-size="14" lengthAdjust="spacing" textLength="4" x="148.5" y="483.0339">&#160;</text></g><g id="elem_c1"><polygon fill="#F1F1F1" points="150.5,586.0679,162.5,598.0679,150.5,610.0679,138.5,598.0679,150.5,586.0679" style="stroke:#181818;stroke-width:0.5;"/></g><ellipse cx="150.5" cy="204.0679" fill="#222222" rx="10" ry="10" style="stroke:#222222;stroke-width:1.0;"/><ellipse cx="150.5" cy="712.0679" fill="none" rx="11" ry="11" style="stroke:#222222;stroke-width:1.0;"/><ellipse cx="150.5" cy="712.0679" fill="#222222" rx="6" ry="6" style="stroke:#222222;stroke-width:1.0;"/><!--link *start*reiniciarPartida to SolicitandoReinicio--><g id="link_*start*reiniciarPartida_SolicitandoReinicio"><path d="M150.5,214.1079 C150.5,230.0279 150.5,257.5779 150.5,280.7079 " fill="none" id="*start*reiniciarPartida-to-SolicitandoReinicio" style="stroke:#008000;stroke-width:1.0;"/><polygon fill="#008000" points="150.5,286.7079,154.5,277.7079,150.5,281.7079,146.5,277.7079,150.5,286.7079" style="stroke:#008000;stroke-width:1.0;"/><path d="M155.5,237.0679 L155.5,264.0679 L367.5,264.0679 L367.5,247.0679 L357.5,237.0679 L155.5,237.0679 " fill="#FEFFDD" style="stroke:#181818;stroke-width:0.5;"/><path d="M357.5,237.0679 L357.5,247.0679 L367.5,247.0679 L357.5,237.0679 " fill="#FEFFDD" style="stroke:#181818;stroke-width:0.5;"/><text fill="#000000" font-family="sans-serif" font-size="13" font-weight="bold" lengthAdjust="spacing" textLength="51" x="161.5" y="255.9649">Jugador</text><text fill="#000000" font-family="sans-serif" font-size="13" lengthAdjust="spacing" textLength="137" x="215.5" y="255.9649">solicita reiniciar partida</text></g><!--link SolicitandoReinicio to ConfirmandoReinicio--><g id="link_SolicitandoReinicio_ConfirmandoReinicio"><path d="M150.5,337.2579 C150.5,370.4079 150.5,423.6079 150.5,456.7979 " fill="none" id="SolicitandoReinicio-to-ConfirmandoReinicio" style="stroke:#008000;stroke-width:1.0;"/><polygon fill="#008000" points="150.5,462.7979,154.5,453.7979,150.5,457.7979,146.5,453.7979,150.5,462.7979" style="stroke:#008000;stroke-width:1.0;"/><path d="M155.5,360.0679 L155.5,440.0679 L436.5,440.0679 L436.5,370.0679 L426.5,360.0679 L155.5,360.0679 " fill="#FEFFDD" style="stroke:#181818;stroke-width:0.5;"/><path d="M426.5,360.0679 L426.5,370.0679 L436.5,370.0679 L426.5,360.0679 " fill="#FEFFDD" style="stroke:#181818;stroke-width:0.5;"/><text fill="#000000" font-family="sans-serif" font-size="13" font-weight="bold" lengthAdjust="spacing" textLength="52" x="161.5" y="378.9649">Sistema</text><text fill="#000000" font-family="sans-serif" font-size="13" lengthAdjust="spacing" textLength="205" x="216.5" y="378.9649">presenta mensaje de confirmaci&#243;n</text><text fill="#000000" font-family="sans-serif" font-size="13" font-weight="bold" lengthAdjust="spacing" textLength="52" x="161.5" y="396.6709">Sistema</text><text fill="#000000" font-family="sans-serif" font-size="13" lengthAdjust="spacing" textLength="99" x="216.5" y="396.6709">permite solicitar:</text><text fill="#000000" font-family="sans-serif" font-size="13" lengthAdjust="spacing" textLength="112" x="161.5" y="414.377">&#8226; confirmar reinicio</text><text fill="#000000" font-family="sans-serif" font-size="13" lengthAdjust="spacing" textLength="103" x="161.5" y="432.083">&#8226; cancelar reinicio</text></g><!--link ConfirmandoReinicio to c1--><g id="link_ConfirmandoReinicio_c1"><path d="M150.5,513.3079 C150.5,535.9379 150.5,562.7279 150.5,579.7879 " fill="none" id="ConfirmandoReinicio-to-c1" style="stroke:#008000;stroke-width:1.0;"/><polygon fill="#008000" points="150.5,585.7879,154.5,576.7879,150.5,580.7879,146.5,576.7879,150.5,585.7879" style="stroke:#008000;stroke-width:1.0;"/><path d="M155.5,536.0679 L155.5,563.0679 L378.5,563.0679 L378.5,546.0679 L368.5,536.0679 L155.5,536.0679 " fill="#FEFFDD" style="stroke:#181818;stroke-width:0.5;"/><path d="M368.5,536.0679 L368.5,546.0679 L378.5,546.0679 L368.5,536.0679 " fill="#FEFFDD" style="stroke:#181818;stroke-width:0.5;"/><text fill="#000000" font-family="sans-serif" font-size="13" font-weight="bold" lengthAdjust="spacing" textLength="51" x="161.5" y="554.9649">Jugador</text><text fill="#000000" font-family="sans-serif" font-size="13" lengthAdjust="spacing" textLength="148" x="215.5" y="554.9649">responde a confirmaci&#243;n</text></g><!--link c1 to *end*reiniciarPartida--><g id="link_c1_*end*reiniciarPartida"><path d="M141.51,601.1579 C112.85,607.8079 25.5,628.0679 25.5,628.0679 C25.5,628.0679 25.5,683.0679 25.5,683.0679 C25.5,683.0679 103.755,700.5967 133.985,707.3667 " fill="none" id="c1-to-*end*reiniciarPartida" style="stroke:#008000;stroke-width:1.0;"/><polygon fill="#008000" points="139.84,708.6779,131.9317,702.8078,134.9609,707.5852,130.1834,710.6144,139.84,708.6779" style="stroke:#008000;stroke-width:1.0;"/><path d="M30.5,633.0679 L30.5,678.0679 L250.5,678.0679 L250.5,643.0679 L240.5,633.0679 L30.5,633.0679 " fill="#FEFFDD" style="stroke:#181818;stroke-width:0.5;"/><path d="M240.5,633.0679 L240.5,643.0679 L250.5,643.0679 L240.5,633.0679 " fill="#FEFFDD" style="stroke:#181818;stroke-width:0.5;"/><text fill="#000000" font-family="sans-serif" font-size="13" lengthAdjust="spacing" textLength="136" x="36.5" y="651.9649">confirmaci&#243;n aceptada</text><text fill="#000000" font-family="sans-serif" font-size="13" font-weight="bold" lengthAdjust="spacing" textLength="52" x="36.5" y="669.6709">Sistema</text><text fill="#000000" font-family="sans-serif" font-size="13" lengthAdjust="spacing" textLength="144" x="91.5" y="669.6709">limpia estado de partida</text></g><!--link c1 to *end*reiniciarPartida--><g id="link_c1_*end*reiniciarPartida"><path d="M159.45,601.5379 C184.84,608.5579 255.5,628.0679 255.5,628.0679 C255.5,628.0679 255.5,683.0679 255.5,683.0679 C255.5,683.0679 193.3076,699.6525 166.7476,706.7325 " fill="none" id="c1-to-*end*reiniciarPartida-1" style="stroke:#0000FF;stroke-width:1.0;"/><polygon fill="#0000FF" points="160.95,708.2779,170.6766,709.8248,165.7813,706.9901,168.616,702.0947,160.95,708.2779" style="stroke:#0000FF;stroke-width:1.0;"/><path d="M260.5,642.0679 L260.5,669.0679 L421.5,669.0679 L421.5,652.0679 L411.5,642.0679 L260.5,642.0679 " fill="#FEFFDD" style="stroke:#181818;stroke-width:0.5;"/><path d="M411.5,642.0679 L411.5,652.0679 L421.5,652.0679 L411.5,642.0679 " fill="#FEFFDD" style="stroke:#181818;stroke-width:0.5;"/><text fill="#000000" font-family="sans-serif" font-size="13" lengthAdjust="spacing" textLength="140" x="266.5" y="660.9649">confirmaci&#243;n cancelada</text></g><g id="FINALIZADO"><rect fill="#F1F1F1" height="50" rx="12.5" ry="12.5" style="stroke:#181818;stroke-width:0.5;" width="102" x="264" y="7"/><line style="stroke:#181818;stroke-width:0.5;" x1="264" x2="366" y1="36.0679" y2="36.0679"/><text fill="#000000" font-family="sans-serif" font-size="14" lengthAdjust="spacing" textLength="82" x="274" y="26.9659">FINALIZADO</text></g><g id="EN_CURSO_2"><rect fill="#F1F1F1" height="50" rx="12.5" ry="12.5" style="stroke:#181818;stroke-width:0.5;" width="92" x="7" y="830"/><line style="stroke:#181818;stroke-width:0.5;" x1="7" x2="99" y1="859.0679" y2="859.0679"/><text fill="#000000" font-family="sans-serif" font-size="14" lengthAdjust="spacing" textLength="72" x="17" y="849.9659">EN_CURSO</text></g><g id="FINALIZADO_2"><rect fill="#F1F1F1" height="50" rx="12.5" ry="12.5" style="stroke:#181818;stroke-width:0.5;" width="102" x="179" y="830"/><line style="stroke:#181818;stroke-width:0.5;" x1="179" x2="281" y1="859.0679" y2="859.0679"/><text fill="#000000" font-family="sans-serif" font-size="14" lengthAdjust="spacing" textLength="82" x="189" y="849.9659">FINALIZADO</text></g><g id="INACTIVO"><rect fill="#F1F1F1" height="50" rx="12.5" ry="12.5" style="stroke:#181818;stroke-width:0.5;" width="86" x="364" y="830"/><line style="stroke:#181818;stroke-width:0.5;" x1="364" x2="450" y1="859.0679" y2="859.0679"/><text fill="#000000" font-family="sans-serif" font-size="14" lengthAdjust="spacing" textLength="66" x="374" y="849.9659">INACTIVO</text></g><!--link EN_CURSO to reiniciarPartida--><g id="link_EN_CURSO_reiniciarPartida"><path d="M144.66,57.16 C143.86,71.53 143,87 143,87 C143,87 143,124 143,124 C143,124 144.5394,129.6419 149.5994,148.1719 " fill="none" id="EN_CURSO-to-reiniciarPartida" style="stroke:#0000FF;stroke-width:1.0;"/><polygon fill="#0000FF" points="151.18,153.96,152.6679,144.2242,149.8629,149.1366,144.9504,146.3316,151.18,153.96" style="stroke:#0000FF;stroke-width:1.0;"/><path d="M148,92 L148,119 L267,119 L267,102 L257,92 L148,92 " fill="#FEFFDD" style="stroke:#181818;stroke-width:0.5;"/><path d="M257,92 L257,102 L267,102 L257,92 " fill="#FEFFDD" style="stroke:#181818;stroke-width:0.5;"/><text fill="#000000" font-family="sans-serif" font-size="13" lengthAdjust="spacing" textLength="98" x="154" y="110.897">reiniciarPartida()</text></g><!--link FINALIZADO to reiniciarPartida--><g id="link_FINALIZADO_reiniciarPartida"><path d="M310,57.09 C305.46,78.95 299.439,107.9451 291.129,147.9951 " fill="none" id="FINALIZADO-to-reiniciarPartida" style="stroke:#008000;stroke-width:1.0;"/><polygon fill="#008000" points="289.91,153.87,295.655,145.8703,290.9258,148.9743,287.8219,144.245,289.91,153.87" style="stroke:#008000;stroke-width:1.0;"/><path d="M307,92 L307,119 L426,119 L426,102 L416,92 L307,92 " fill="#FEFFDD" style="stroke:#181818;stroke-width:0.5;"/><path d="M416,92 L416,102 L426,102 L416,92 " fill="#FEFFDD" style="stroke:#181818;stroke-width:0.5;"/><text fill="#000000" font-family="sans-serif" font-size="13" lengthAdjust="spacing" textLength="98" x="313" y="110.897">reiniciarPartida()</text></g><!--link reiniciarPartida to INACTIVO--><g id="link_reiniciarPartida_INACTIVO"><path d="M355.02,733.04 C363.05,751.57 368,763 368,763 C368,763 382.6365,797.1451 394.1865,824.0951 " fill="none" id="reiniciarPartida-to-INACTIVO" style="stroke:#008000;stroke-width:1.0;"/><polygon fill="#008000" points="396.55,829.61,396.6813,819.762,394.5804,825.0143,389.3281,822.9134,396.55,829.61" style="stroke:#008000;stroke-width:1.0;"/><path d="M387,768 L387,795 L511,795 L511,778 L501,768 L387,768 " fill="#FEFFDD" style="stroke:#181818;stroke-width:0.5;"/><path d="M501,768 L501,778 L511,778 L501,768 " fill="#FEFFDD" style="stroke:#181818;stroke-width:0.5;"/><text fill="#000000" font-family="sans-serif" font-size="13" lengthAdjust="spacing" textLength="103" x="393" y="786.897">partida reiniciada</text></g><!--link reiniciarPartida to EN_CURSO_2--><g id="link_reiniciarPartida_EN_CURSO_2"><path d="M95.92,733.04 C87.31,751.57 82,763 82,763 C82,763 71.1821,796.9434 62.5921,823.8934 " fill="none" id="reiniciarPartida-to-EN_CURSO_2" style="stroke:#0000FF;stroke-width:1.0;"/><polygon fill="#0000FF" points="60.77,829.61,67.3143,822.2498,62.2884,824.8461,59.6921,819.8203,60.77,829.61" style="stroke:#0000FF;stroke-width:1.0;"/><path d="M87,768 L87,795 L214,795 L214,778 L204,768 L87,768 " fill="#FEFFDD" style="stroke:#181818;stroke-width:0.5;"/><path d="M204,768 L204,778 L214,778 L204,768 " fill="#FEFFDD" style="stroke:#181818;stroke-width:0.5;"/><text fill="#000000" font-family="sans-serif" font-size="13" lengthAdjust="spacing" textLength="106" x="93" y="786.897">reinicio cancelado</text></g><!--link reiniciarPartida to FINALIZADO_2--><g id="link_reiniciarPartida_FINALIZADO_2"><path d="M227.28,733.04 C227.11,751.57 227,763 227,763 C227,763 227,800 227,800 C227,800 227.5265,809.4793 228.3265,823.8493 " fill="none" id="reiniciarPartida-to-FINALIZADO_2" style="stroke:#0000FF;stroke-width:1.0;"/><polygon fill="#0000FF" points="228.66,829.84,232.1535,820.6316,228.3821,824.8477,224.1659,821.0763,228.66,829.84" style="stroke:#0000FF;stroke-width:1.0;"/><path d="M232,768 L232,795 L359,795 L359,778 L349,768 L232,768 " fill="#FEFFDD" style="stroke:#181818;stroke-width:0.5;"/><path d="M349,768 L349,778 L359,778 L349,768 " fill="#FEFFDD" style="stroke:#181818;stroke-width:0.5;"/><text fill="#000000" font-family="sans-serif" font-size="13" lengthAdjust="spacing" textLength="106" x="238" y="786.897">reinicio cancelado</text></g><!--SRC=[fPJHIiCm58RlynIXtgWmP5vAASXKcCWccthX6ECiFSwuDWbfTp54y5by1H_1D_59JDjqNReM2hPNIVxpd_ETz3HPSw50GqmZBZ3TAgHAHjjiGSZrQ35ud4p7j3SxMaORdFS2gf4BpZZeUz0f3u48cIAL8ejVa_hfyGb14T9CGyZDS7HvDto-lCeDLnfH_DCnIS58wn8A2VKEuppwJWWrJn7bcTS8fp8oiXH4A2T5Y3mK3QHuuJfk4R4-zNtsAZd382XIp4xd3cDR5WSrs_2NmUrc1Q7K_jaoe8cDgnYfibtAr5KdibL34gU8Degc8gOyIJ66l0YbCK5XYeXH9F26D3JCrelnds_H68GwviQt9D0NkUhtysiNgqigMHs1O1ZLJrpC1Wm7a_KxjTP0AIaC2ZJ0k1dD1UydC9VRdC7neS1GfM1lgjQTYCUA0qNp0OKowsVxhHR9o_7hcDlsiMxuKOvCETcBytnOogLdZwj9jO9gmoC78-aqnmW73yEdiJl55c_t6Pl2AieclvAtAhJnjo1tfBAZuJvQTyi_]--></g></svg>