<?xml version="1.0" encoding="us-ascii" standalone="no"?><svg xmlns="http://www.w3.org/2000/svg" xmlns:xlink="http://www.w3.org/1999/xlink" contentStyleType="text/css" height="622px" preserveAspectRatio="none" style="width:500px;height:622px;background:#FFFFFF;" version="1.1" viewBox="0 0 500 622" width="500px" zoomAndPan="magnify"><defs/><g><g id="EN_CURSO"><rect fill="#F1F1F1" height="50" rx="12.5" ry="12.5" style="stroke:#181818;stroke-width:0.5;" width="92" x="201" y="7"/><line style="stroke:#181818;stroke-width:0.5;" x1="201" x2="293" y1="36.0679" y2="36.0679"/><text fill="#000000" font-family="sans-serif" font-size="14" lengthAdjust="spacing" textLength="72" x="211" y="26.9659">EN_CURSO</text></g><path d="M19.5,154 L474.5,154 A12.5,12.5 0 0 1 487,166.5 L487,183.0679 L7,183.0679 L7,166.5 A12.5,12.5 0 0 1 19.5,154 " fill="#F1F1F1" style="stroke:#F1F1F1;stroke-width:1.0;"/><rect fill="none" height="315.0679" rx="12.5" ry="12.5" style="stroke:#181818;stroke-width:0.5;" width="480" x="7" y="154"/><line style="stroke:#181818;stroke-width:0.5;" x1="7" x2="487" y1="183.0679" y2="183.0679"/><text fill="#000000" font-family="sans-serif" font-size="14" lengthAdjust="spacing" textLength="76" x="209" y="173.9659">rotarPieza()</text><g id="elem_c1"><polygon fill="#F1F1F1" points="155,287.0679,167,299.0679,155,311.0679,143,299.0679,155,287.0679" style="stroke:#181818;stroke-width:0.5;"/></g><ellipse cx="155" cy="204.0679" fill="#222222" rx="10" ry="10" style="stroke:#222222;stroke-width:1.0;"/><ellipse cx="155" cy="448.0679" fill="none" rx="11" ry="11" style="stroke:#222222;stroke-width:1.0;"/><ellipse cx="155" cy="448.0679" fill="#222222" rx="6" ry="6" style="stroke:#222222;stroke-width:1.0;"/><!--link *start*rotarPieza to c1--><g id="link_*start*rotarPieza_c1"><path d="M155,214.3279 C155,231.5079 155,262.2679 155,280.8379 " fill="none" id="*start*rotarPieza-to-c1" style="stroke:#008000;stroke-width:1.0;"/><polygon fill="#008000" points="155,286.8379,159,277.8379,155,281.8379,151,277.8379,155,286.8379" style="stroke:#008000;stroke-width:1.0;"/><path d="M160,237.0679 L160,264.0679 L343,264.0679 L343,247.0679 L333,237.0679 L160,237.0679 " fill="#FEFFDD" style="stroke:#181818;stroke-width:0.5;"/><path d="M333,237.0679 L333,247.0679 L343,247.0679 L333,237.0679 " fill="#FEFFDD" style="stroke:#181818;stroke-width:0.5;"/><text fill="#000000" font-family="sans-serif" font-size="13" font-weight="bold" lengthAdjust="spacing" textLength="51" x="166" y="255.9649">Jugador</text><text fill="#000000" font-family="sans-serif" font-size="13" lengthAdjust="spacing" textLength="108" x="220" y="255.9649">solicita rotar pieza</text></g><!--link c1 to *end*rotarPieza--><g id="link_c1_*end*rotarPieza"><path d="M145.58,302.0579 C114.63,308.6179 18,329.0679 18,329.0679 C18,329.0679 18,419.0679 18,419.0679 C18,419.0679 106.0715,437.0667 138.3715,443.6667 " fill="none" id="c1-to-*end*rotarPieza" style="stroke:#008000;stroke-width:1.0;"/><polygon fill="#008000" points="144.25,444.8679,136.233,439.1471,139.3512,443.8669,134.6314,446.9852,144.25,444.8679" style="stroke:#008000;stroke-width:1.0;"/><path d="M23,351.5679 L23,396.5679 L267,396.5679 L267,361.5679 L257,351.5679 L23,351.5679 " fill="#FEFFDD" style="stroke:#181818;stroke-width:0.5;"/><path d="M257,351.5679 L257,361.5679 L267,361.5679 L257,351.5679 " fill="#FEFFDD" style="stroke:#181818;stroke-width:0.5;"/><text fill="#000000" font-family="sans-serif" font-size="13" lengthAdjust="spacing" textLength="88" x="29" y="370.4649">rotaci&#243;n v&#225;lida</text><text fill="#000000" font-family="sans-serif" font-size="13" font-weight="bold" lengthAdjust="spacing" textLength="52" x="29" y="388.1709">Sistema</text><text fill="#000000" font-family="sans-serif" font-size="13" lengthAdjust="spacing" textLength="168" x="84" y="388.1709">presenta pieza activa rotada</text></g><!--link c1 to *end*rotarPieza--><g id="link_c1_*end*rotarPieza"><path d="M164.18,302.3479 C191.76,309.1779 272,329.0679 272,329.0679 C272,329.0679 272,419.0679 272,419.0679 C272,419.0679 200.5948,436.1497 171.6348,443.0897 " fill="none" id="c1-to-*end*rotarPieza-1" style="stroke:#FF0000;stroke-width:1.0;"/><polygon fill="#FF0000" points="165.8,444.4879,175.4844,446.2804,170.6623,443.3227,173.62,438.5007,165.8,444.4879" style="stroke:#FF0000;stroke-width:1.0;"/><path d="M277,334.0679 L277,414.0679 L478,414.0679 L478,344.0679 L468,334.0679 L277,334.0679 " fill="#FEFFDD" style="stroke:#181818;stroke-width:0.5;"/><path d="M468,334.0679 L468,344.0679 L478,344.0679 L468,334.0679 " fill="#FEFFDD" style="stroke:#181818;stroke-width:0.5;"/><text fill="#000000" font-family="sans-serif" font-size="13" lengthAdjust="spacing" textLength="99" x="283" y="352.9649">rotaci&#243;n inv&#225;lida</text><text fill="#000000" font-family="sans-serif" font-size="13" lengthAdjust="spacing" textLength="100" x="283" y="370.6709">(colisi&#243;n o l&#237;mite)</text><text fill="#000000" font-family="sans-serif" font-size="13" font-weight="bold" lengthAdjust="spacing" textLength="52" x="283" y="388.377">Sistema</text><text fill="#000000" font-family="sans-serif" font-size="13" lengthAdjust="spacing" textLength="125" x="338" y="388.377">presenta pieza activa</text><text fill="#000000" font-family="sans-serif" font-size="13" lengthAdjust="spacing" textLength="70" x="283" y="406.083">sin rotaci&#243;n</text></g><g id="EN_CURSO_2"><rect fill="#F1F1F1" height="50" rx="12.5" ry="12.5" style="stroke:#181818;stroke-width:0.5;" width="92" x="201" y="566"/><line style="stroke:#181818;stroke-width:0.5;" x1="201" x2="293" y1="595.0679" y2="595.0679"/><text fill="#000000" font-family="sans-serif" font-size="14" lengthAdjust="spacing" textLength="72" x="211" y="585.9659">EN_CURSO</text></g><!--link EN_CURSO to rotarPieza--><g id="link_EN_CURSO_rotarPieza"><path d="M247,57.14 C247,79.82 247,109.86 247,147.71 " fill="none" id="EN_CURSO-to-rotarPieza" style="stroke:#008000;stroke-width:1.0;"/><polygon fill="#008000" points="247,153.71,251,144.71,247,148.71,243,144.71,247,153.71" style="stroke:#008000;stroke-width:1.0;"/><path d="M252,92 L252,119 L342,119 L342,102 L332,92 L252,92 " fill="#FEFFDD" style="stroke:#181818;stroke-width:0.5;"/><path d="M332,92 L332,102 L342,102 L332,92 " fill="#FEFFDD" style="stroke:#181818;stroke-width:0.5;"/><text fill="#000000" font-family="sans-serif" font-size="13" lengthAdjust="spacing" textLength="69" x="258" y="110.897">rotarPieza()</text></g><!--link rotarPieza to EN_CURSO_2--><g id="link_rotarPieza_EN_CURSO_2"><path d="M170.62,469.04 C161.87,486.98 156,499 156,499 C156,499 156,536 156,536 C156,536 176.8993,548.4094 201.1293,562.7794 " fill="none" id="rotarPieza-to-EN_CURSO_2" style="stroke:#008000;stroke-width:1.0;"/><polygon fill="#008000" points="206.29,565.84,200.5894,557.8086,201.9894,563.2895,196.5086,564.6895,206.29,565.84" style="stroke:#008000;stroke-width:1.0;"/><path d="M161,504 L161,531 L288,531 L288,514 L278,504 L161,504 " fill="#FEFFDD" style="stroke:#181818;stroke-width:0.5;"/><path d="M278,504 L278,514 L288,514 L278,504 " fill="#FEFFDD" style="stroke:#181818;stroke-width:0.5;"/><text fill="#000000" font-family="sans-serif" font-size="13" lengthAdjust="spacing" textLength="106" x="167" y="522.897">rotaci&#243;n realizada</text></g><!--link rotarPieza to EN_CURSO_2--><g id="link_rotarPieza_EN_CURSO_2"><path d="M288.97,469.04 C293.78,486.98 297,499 297,499 C297,499 297,536 297,536 C297,536 286.7572,547.0681 273.4472,561.4381 " fill="none" id="rotarPieza-to-EN_CURSO_2-1" style="stroke:#FF0000;stroke-width:1.0;"/><polygon fill="#FF0000" points="269.37,565.84,278.4204,561.9553,272.7677,562.1718,272.5512,556.5191,269.37,565.84" style="stroke:#FF0000;stroke-width:1.0;"/><path d="M302,504 L302,531 L440,531 L440,514 L430,504 L302,504 " fill="#FEFFDD" style="stroke:#181818;stroke-width:0.5;"/><path d="M430,504 L430,514 L440,514 L430,504 " fill="#FEFFDD" style="stroke:#181818;stroke-width:0.5;"/><text fill="#000000" font-family="sans-serif" font-size="13" lengthAdjust="spacing" textLength="117" x="308" y="522.897">rotaci&#243;n bloqueada</text></g><!--SRC=[ZL9BJiCm4Dtx5AEmQP4gLDPHDeWD2q1KhAggSfnHEwfZ6zkjr28Emm5OSOHSZ3WcIYn0rBlv-BqtRyRjI1bkUGsI5FgZGJ1Q7aF0sEtz-kRvQV40i-N5nYAgrQm0gpstZuGdpfJs25g5hpisv2TJXgg2K6NCUTus3KNW3h9nRmQlZ47xOgUOGvwBhIQ1HH4BoyjLea3CktJ27X9vMTpjDxpIDhyg2t1QaY3F8pcOJdBe6yI5g2KSWxTalwC7547Dfu93yowfuZtdWfp7cdUSng93rNAQEAlmT8W2gh-vBLPdCfCQSqz4Ew7h2Xfayr6Jn-dPggBdf0RuLE1Rlxl-2jRNtUxwC6EZbISM3Xz-NaYSmoANT0gU37waOD-U_0zLIlsonmJg2m00]--></g></svg>